<svg width="113" height="75.69" version="1.1" viewBox="0 0 113 75.69" xmlns="http://www.w3.org/2000/svg">
	<path d="m14.5 0c-1.307 0-2.377 1.07-2.377 2.377v6.178h-9.742c-1.307 0-2.377 1.07-2.377 2.377v62.38c0 1.307 1.07 2.377 2.377 2.377h108.2c1.307 0 2.377-1.07 2.377-2.377v-62.5c-0.119-1.188-1.187-2.258-2.494-2.258h-9.982v-6.178c0-1.307-1.07-2.377-2.377-2.377-14.38 0-28.52 2.853-41.82 8.318-13.31-5.585-27.33-8.318-41.83-8.318zm2.377 4.635c12.95 0.3565 25.31 2.97 37.19 7.842v57.39c-11.88-4.634-24.36-7.249-37.19-7.486zm79.13 0v57.75c-12.95 0.2376-25.31 2.852-37.19 7.486v-57.39c11.88-4.872 24.36-7.485 37.19-7.842zm-91.37 8.555h7.723v51.57c0 1.307 1.07 2.377 2.377 2.377 9.506 0 18.77 1.427 27.8 3.922h-37.9zm95.89 0h7.723v57.75h-37.9c9.03-2.495 18.3-3.922 27.8-3.922 1.307 0 2.377-1.07 2.377-2.377zm-62.25 7.883c-0.7441-0.05451-1.517 0.2933-1.922 1.074l-11 21.24c-0.6497 1.255 0.1703 2.77 1.576 2.91l18.96 1.896c1.451 0.1451 2.565-1.262 2.09-2.641l-7.965-23.13c-0.2862-0.8314-1-1.287-1.744-1.342zm38.72 1.623c-0.9506 0-1.782 0.7131-2.139 1.545-3.089 8.793-4.515 12.83-7.367 20.2-0.4753 1.188 0.1204 2.495 1.309 2.971 0.2377 0.1189 0.5924 0.1191 0.8301 0.1191 0.9505 0 1.782-0.5941 2.139-1.426 0.4753-1.069 0.833-2.139 1.189-3.09 1.782-0.3565 3.209-0.5947 4.516-0.9512 1.188-0.2376 2.375-0.4756 3.801-0.832 0.3564 0.8317 0.5948 1.665 0.9512 2.615 0.4753 1.188 1.783 1.782 2.971 1.307s1.782-1.782 1.307-2.971c-2.733-7.723-4.278-11.29-7.248-18.06-0.3565-0.8318-1.188-1.426-2.258-1.426zm-39.42 7.969 4.16 12.08-9.904-0.9902zm39.9 0.8242c0.8318 1.901 1.545 3.564 2.258 5.584-1.188 0.1188-2.139 0.3562-3.09 0.5938-0.4753 0.1188-1.07 0.2385-1.545 0.3574 0.8318-2.139 1.545-4.159 2.377-6.535z"/>
</svg>
