<svg width="19.5" height="19.5" version="1.1" viewBox="0 0 19.5 19.5" xmlns="http://www.w3.org/2000/svg">
	<path d="m3.75 0c-2.071 0-3.75 1.679-3.75 3.75v12c0 2.071 1.679 3.75 3.75 3.75h12c2.071 0 3.75-1.679 3.75-3.75v-12c0-2.071-1.679-3.75-3.75-3.75zm0 1.5h12c1.243 0 2.25 1.007 2.25 2.25v12c0 1.243-1.007 2.25-2.25 2.25h-12c-1.243 0-2.25-1.007-2.25-2.25v-12c0-1.243 1.007-2.25 2.25-2.25zm2.502 2.338c-0.4142 0-0.75 0.3358-0.75 0.75 0 0.4142 0.3358 0.75 0.75 0.75h6.994c0.4142 0 0.75-0.3358 0.75-0.75s-0.3358-0.75-0.75-0.75zm0 3.363c-0.4137 0-0.75 0.3363-0.75 0.75s0.3363 0.748 0.75 0.748c0.4137-1e-7 0.748-0.3343 0.748-0.748s-0.3343-0.75-0.748-0.75zm3.498 0c-0.4137 0-0.75 0.3363-0.75 0.75s0.3363 0.748 0.75 0.748c0.4138-1e-7 0.748-0.3343 0.748-0.748s-0.3343-0.75-0.748-0.75zm3.498 0c-0.4138 0-0.75 0.3363-0.75 0.75s0.3362 0.748 0.75 0.748c0.4137-1e-7 0.748-0.3343 0.748-0.748s-0.3343-0.75-0.748-0.75zm-6.996 3.137c-0.4137 0-0.75 0.3343-0.75 0.748 0 0.4137 0.3363 0.75 0.75 0.75 0.4137-1e-6 0.748-0.3363 0.748-0.75s-0.3343-0.748-0.748-0.748zm3.498 0c-0.4137 0-0.75 0.3343-0.75 0.748 0 0.4137 0.3363 0.75 0.75 0.75 0.4138-1e-6 0.748-0.3363 0.748-0.75s-0.3343-0.748-0.748-0.748zm3.498 0c-0.4138 0-0.75 0.3343-0.75 0.748 0 0.4137 0.3362 0.75 0.75 0.75 0.4137-1e-6 0.748-0.3363 0.748-0.75s-0.3343-0.748-0.748-0.748zm-6.996 3.25c-0.4137 0-0.75 0.3362-0.75 0.75 0 0.4137 0.3363 0.748 0.75 0.748s0.748-0.3343 0.748-0.748c0-0.4138-0.3343-0.75-0.748-0.75zm3.498 0c-0.4137 0-0.75 0.3362-0.75 0.75 0 0.4137 0.3363 0.748 0.75 0.748 0.4138 0 0.748-0.3343 0.748-0.748 0-0.4138-0.3343-0.75-0.748-0.75zm3.498 0c-0.4138 0-0.75 0.3362-0.75 0.75 0 0.4137 0.3362 0.748 0.75 0.748 0.4137 0 0.748-0.3343 0.748-0.748 0-0.4138-0.3343-0.75-0.748-0.75z" fill="#262626"/>
</svg>
