<svg width="90" height="75" version="1.1" viewBox="0 0 90 75" xmlns="http://www.w3.org/2000/svg">
	<path d="m90 30.41v36.7c0 4.36-3.555 7.895-7.94 7.895h-74.11c-4.385 0-7.94-3.535-7.94-7.895v-36.7c-0.03611-0.5889 0.128-1.202 0.5414-1.742l21.17-27.63c0.5006-0.6533 1.279-1.037 2.105-1.037h42.35c0.826 0 1.605 0.3834 2.105 1.037l21.17 27.63c0.4134 0.5395 0.5776 1.153 0.5415 1.742zm-84.7 2.485v34.21c0 1.453 1.185 2.632 2.647 2.632h74.11c1.462 0 2.647-1.178 2.647-2.632v-34.21h-79.4zm2.697-5.263h74.01l-17.14-22.37h-39.73l-17.14 22.37zm23.77 15.79h26.47c1.462 0 2.647 1.178 2.647 2.632v10.53c0 1.453-1.185 2.632-2.647 2.632h-26.47c-1.462 0-2.647-1.178-2.647-2.632v-10.53c0-1.453 1.185-2.632 2.647-2.632zm2.647 5.263v5.263h21.17v-5.263h-21.17zm-13.23-25c-1.462 0-2.647-1.178-2.647-2.632 0-1.453 1.185-2.632 2.647-2.632h47.64c1.462 0 2.647 1.178 2.647 2.632 0 1.453-1.185 2.632-2.647 2.632h-47.64zm6.617-9.21c-1.462 0-2.647-1.178-2.647-2.632s1.185-2.632 2.647-2.632h34.41c1.462 0 2.647 1.178 2.647 2.632s-1.185 2.632-2.647 2.632h-34.41z"/>
</svg>
