<svg width="27.65" height="19.25" version="1.1" viewBox="0 0 27.65 19.25" xmlns="http://www.w3.org/2000/svg">
	<path d="m13.82 0c-10.5 0-13.65 9.099-13.68 9.191l-0.1465 0.4336 0.1445 0.4336c0.03025 0.0921 3.184 9.191 13.68 9.191 10.5 0 13.65-9.099 13.68-9.191l0.1465-0.4336-0.1445-0.4336c-0.0302-0.09212-3.184-9.191-13.68-9.191zm0 2.75c7.358 0 10.21 5.288 10.9 6.875-0.693 1.592-3.545 6.875-10.9 6.875-7.358 0-10.21-5.288-10.9-6.875 0.693-1.592 3.545-6.875 10.9-6.875zm0 2.75c-2.258 0-4.125 1.869-4.125 4.125 0 2.258 1.867 4.125 4.125 4.125 2.256 0 4.125-1.867 4.125-4.125 0-2.256-1.869-4.125-4.125-4.125z"/>
</svg>
