<svg width="45" height="35.16" version="1.1" viewBox="0 0 45 35.16" xmlns="http://www.w3.org/2000/svg">
	<path d="m44.26 11-5.14-8.566c0.3053-0.1006 0.5599-0.3152 0.7107-0.5991 0.1507-0.2839 0.1859-0.615 0.0983-0.9243-0.0877-0.3092-0.2915-0.5726-0.5688-0.7351-0.2774-0.1625-0.6068-0.2116-0.9194-0.1369l-32.65 7.534c-0.3246 0.07486-0.6061 0.2756-0.7827 0.5579s-0.2338 0.6234-0.1591 0.9479c0.0565 0.2361 0.1809 0.4505 0.3579 0.6167 0.177 0.1662 0.3988 0.2769 0.638 0.3184l-5.113 8.521c-0.389 0.627-0.6314 1.334-0.7093 2.068-0.07787 0.7337 0.01084 1.476 0.2595 2.17 0.543 1.429 1.508 2.659 2.766 3.527 1.258 0.868 2.751 1.333 4.28 1.333 1.529 0 3.021-0.4649 4.28-1.333 1.258-0.8681 2.223-2.098 2.766-3.527 0.2487-0.6947 0.3375-1.437 0.2596-2.17-0.0779-0.7338-0.3203-1.44-0.7093-2.068l-5.408-9.013 12.62-2.913v26.05h-7.534c-0.333 0-0.6524 0.1323-0.8879 0.3678s-0.3678 0.5549-0.3678 0.888c0 0.333 0.1323 0.6524 0.3678 0.8879s0.5549 0.3678 0.8879 0.3678h17.58c0.3331 0 0.6525-0.1323 0.888-0.3678s0.3678-0.5549 0.3678-0.8879c0-0.3331-0.1323-0.6525-0.3678-0.888s-0.5549-0.3678-0.888-0.3678h-7.534v-26.63l12.07-2.785-4.654 7.756c-0.3889 0.627-0.6314 1.334-0.7093 2.068-0.0778 0.7338 0.0109 1.476 0.2596 2.17 0.543 1.429 1.508 2.659 2.766 3.527 1.258 0.868 2.751 1.333 4.28 1.333s3.021-0.4649 4.28-1.333c1.258-0.8681 2.223-2.098 2.766-3.527 0.2487-0.6947 0.3374-1.437 0.2595-2.17-0.0779-0.7338-0.3203-1.44-0.7093-2.068zm-33.06 9.728h-7.749c-0.1111 0-0.2202-0.0295-0.3162-0.0855-0.09598-0.0559-0.1754-0.1364-0.2301-0.233-0.05473-0.0967-0.08283-0.2062-0.08144-0.3173 0.0014-0.111 0.03224-0.2198 0.08939-0.315l4.413-7.355 4.413 7.355c0.0572 0.0952 0.088 0.204 0.0894 0.315 0.0014 0.1111-0.0267 0.2206-0.0814 0.3173-0.0548 0.0966-0.1342 0.1771-0.2301 0.233-0.096 0.056-0.2051 0.0855-0.3162 0.0855zm30.33-7.534h-7.749c-0.1111 0-0.2202-0.0295-0.3162-0.0855-0.096-0.0559-0.1754-0.1363-0.2301-0.233s-0.0829-0.2062-0.0815-0.3173c0.0014-0.111 0.0323-0.2198 0.0894-0.315l4.413-7.355 4.413 7.355c0.0572 0.0952 0.088 0.204 0.0894 0.3151s-0.0267 0.2205-0.0815 0.3172c-0.0547 0.0967-0.1341 0.1771-0.2301 0.2331-0.096 0.0559-0.2051 0.0854-0.3162 0.0854z"/>
</svg>
