<svg width="18.39" height="18.89" version="1.1" viewBox="0 0 18.39 18.89" xmlns="http://www.w3.org/2000/svg">
	<path d="m10.7 0.03825c-1.216 0.1443-2.349 0.6947-3.215 1.561l-5.447 5.447c-1.101 1.102-1.801 2.543-1.984 4.09-0.5261 4.435 3.274 8.233 7.709 7.707 1.547-0.1835 2.986-0.8829 4.088-1.984l6.541-6.539-1.416-1.414-6.539 6.539c-0.7841 0.7841-1.809 1.281-2.91 1.412-3.196 0.3792-5.866-2.29-5.486-5.486 0.1307-1.101 0.6279-2.126 1.412-2.91l5.447-5.447c0.5484-0.5485 1.267-0.8969 2.037-0.9883 2.242-0.266 4.102 1.595 3.836 3.838-0.09137 0.7703-0.4398 1.487-0.9883 2.035l-5.859 5.859c-0.3505 0.3505-0.8686 0.4558-1.328 0.2695-0.8474-0.3436-1.053-1.357-0.4062-2.004l6.951-6.953-1.414-1.414-6.951 6.951c-1.608 1.608-1.039 4.419 1.068 5.273 1.199 0.4859 2.579 0.2059 3.494-0.709l5.861-5.859c0.8657-0.8658 1.414-1.999 1.559-3.215 0.4131-3.481-2.578-6.472-6.059-6.059z"/>
</svg>
