<svg width="17" height="16.72" version="1.1" viewBox="0 0 17 16.72" xmlns="http://www.w3.org/2000/svg">
	<path d="m8.035 0.005903c-0.9058-0.08169-1.666 0.6924-1.666 1.834 0 0.9844 0.07719 1.877 0.3867 2.9 0.158 0.5221 0.3762 1.073 0.668 1.682-0.5 1.604-1.212 3.394-2.215 5.123-2.392 0.8712-3.838 1.88-4.607 2.689-0.3795 0.3994-0.5965 0.8284-0.6016 1.254-0.005254 0.4441 0.2234 0.8097 0.5742 1.021 0.6782 0.4094 1.68 0.2189 2.443-0.5273l0.00195-2e-3v-2e-3c1.129-1.124 2.067-2.377 2.842-3.666 1.326-0.4588 2.957-0.8767 4.947-1.193 0.1832 0.1473 0.3701 0.2834 0.5586 0.4102 1.042 0.7006 2.141 1.089 3.283 1.393 0.6684 0.1782 1.272 0.08951 1.713-0.2129 0.4382-0.3005 0.6794-0.7913 0.6309-1.303-0.0491-0.5182-0.3844-0.9866-0.9492-1.281-0.5567-0.2905-1.334-0.4154-2.332-0.3105-0.9262 0.08236-1.795 0.1862-2.611 0.3066-0.6217-0.5596-1.224-1.29-1.809-2.264-0.3347-0.558-0.6141-1.058-0.8457-1.516v-0.00195c0.494-1.657 0.7679-3.09 0.9082-4.033 0.09591-0.6448 0.00855-1.19-0.2363-1.6-0.2484-0.4151-0.6465-0.6618-1.084-0.7012zm-0.08789 0.9375c0.1134 0.0102 0.2448 0.07369 0.3457 0.2422 0.1044 0.1744 0.1873 0.4868 0.1133 0.9844-0.1042 0.701-0.2815 1.668-0.5684 2.789-0.0612-0.1673-0.1143-0.3283-0.1621-0.4863-0.275-0.909-0.3496-1.706-0.3496-2.633 0-0.1865 0.02737-0.3366 0.07031-0.457 0.1288-0.3612 0.404-0.4527 0.5508-0.4395zm0.09375 6.66c0.1322 0.2351 0.2752 0.4782 0.4277 0.7324 0.4704 0.785 0.959 1.434 1.469 1.975-1.274 0.2275-2.402 0.4979-3.398 0.7949 0.6176-1.185 1.11-2.376 1.502-3.502zm6.373 3.115c0.547 0.0037 0.9303 0.1072 1.182 0.2383 0.3278 0.171 0.429 0.3848 0.4434 0.5371 0.0151 0.1588-0.05611 0.3259-0.2246 0.4414-0.1656 0.1136-0.4644 0.1979-0.9141 0.07813-0.987-0.2627-1.883-0.5767-2.721-1.088l-2e-3 -2e-3c0.52-0.0646 1.062-0.1218 1.625-0.1719h0.0078c0.22-0.02327 0.4212-0.03444 0.6035-0.0332zm-10.07 2.191c-0.585 0.844-1.247 1.657-2 2.406-0.5577 0.5436-1.08 0.5027-1.266 0.3906-0.08121-0.049-0.1202-0.114-0.1191-0.207 0.0013-0.1114 0.0645-0.327 0.3457-0.623 0.525-0.552 1.485-1.273 3.039-1.967z" fill="#808080"/>
</svg>
