<svg width="33.12" height="33.07" version="1.1" viewBox="0 0 33.12 33.07" xmlns="http://www.w3.org/2000/svg">
	<path d="m7.92 0c-4.752 0-7.92 3.504-7.92 8.016 0 4.464 3.168 7.873 7.92 7.873 4.8 0 8.016-3.409 8.016-7.873 0-4.512-3.216-8.016-8.016-8.016zm17.38 0.4805-20.45 32.02h3.168l20.5-32.02zm-17.38 2.736c2.496 0 4.271 1.919 4.271 4.799 0 2.736-1.775 4.705-4.271 4.705-2.448 0-4.225-1.969-4.225-4.705 0-2.88 1.777-4.799 4.225-4.799zm17.23 13.97c-4.752 0-7.92 3.504-7.92 8.016 0 4.464 3.168 7.873 7.92 7.873s7.967-3.409 7.967-7.873c0-4.512-3.215-8.016-7.967-8.016zm0 3.217c2.496 0 4.271 1.919 4.271 4.799 0 2.784-1.775 4.705-4.271 4.705s-4.225-1.921-4.225-4.705c0-2.88 1.729-4.799 4.225-4.799z"/>
</svg>
