<svg width="36.73" height="33.11" version="1.1" viewBox="0 0 36.73 33.11" xmlns="http://www.w3.org/2000/svg">
	<path d="m11.1 0.00634c-0.3288-0.01272-0.6625-0.006346-1 0.01953-1.35 0.1035-2.758 0.5322-4.133 1.416-2.726 1.753-4.306 4.108-5.133 6.305-0.8265 2.197-0.9387 4.208-0.7578 5.564a1.25 1.25 0 0 0 1.404 1.074 1.25 1.25 0 0 0 1.074-1.404c-0.1151-0.863-0.04883-2.58 0.6191-4.355 0.668-1.776 1.899-3.637 4.145-5.08 2.096-1.347 3.975-1.27 5.709-0.6367 1.734 0.633 3.25 1.92 4.061 2.881 0.5271 0.6254 1.523 0.6805 2.115 0.1191 0.8721-0.8258 2.514-1.946 4.439-2.498 1.925-0.5518 4.098-0.5875 6.383 0.6309 2.97 1.584 4.078 3.919 4.201 6.475 0.1234 2.555-0.8913 5.313-2.373 7.182-2.76 3.481-9.47 9.056-13.65 12.83l-9.367-8.961a1.25 1.25 0 0 0-1.768 0.04102 1.25 1.25 0 0 0 0.03906 1.766l9.529 9.115c0.8488 0.8119 2.209 0.8261 3.076 0.04102 4.068-3.686 10.9-9.249 14.1-13.28 1.863-2.35 3.068-5.585 2.91-8.855-0.158-3.271-1.833-6.594-5.521-8.561-2.902-1.547-5.844-1.517-8.248-0.8281-1.984 0.5687-3.508 1.548-4.676 2.494-1.078-1.097-2.5-2.248-4.393-2.939-0.8572-0.313-1.799-0.5165-2.785-0.5547zm4.859 9.443c-0.5-0.04406-1.086 0.2482-1.332 0.75l-2.756 5.641-1.801-1.922c-0.5672-0.6055-1.613-0.5319-2.09 0.1465l-1.604 2.285h-3.039a1.25 1.25 0 0 0-1.25 1.25 1.25 1.25 0 0 0 1.25 1.25h3.637c0.4393 0 0.8516-0.2162 1.104-0.5742l1.135-1.615 1.973 2.105h2e-3c0.6184 0.6597 1.8 0.4809 2.197-0.332l2.176-4.447 1.9 6.625c0.1541 0.5376 0.6785 0.9283 1.178 0.9727 0.4993 0.04436 1.084-0.248 1.33-0.75l1.822-3.707 0.8066 1.148c0.2529 0.3597 0.6633 0.5742 1.104 0.5742h3.637a1.25 1.25 0 0 0 1.25-1.25 1.25 1.25 0 0 0-1.25-1.25h-3.039l-1.578-2.248c-0.5569-0.7927-1.889-0.6889-2.316 0.1816l-1.363 2.771-1.902-6.635c-0.1543-0.5369-0.6798-0.9266-1.18-0.9707z"/>
</svg>
