<svg width="91.5" height="73.29" version="1.1" viewBox="0 0 91.5 73.29" xmlns="http://www.w3.org/2000/svg">
	<path d="m45.75 0c-4.65 0.4014-5.194 1.68-7.779 5.621l-36.79 56.05c-3.19 4.862 0.4566 11.62 6.271 11.62h76.59c5.815 0 9.462-6.754 6.271-11.62l-36.79-56.05c-2.044-3.645-3.684-5.571-7.779-5.621zm0 5.373c0.6247-5.1e-6 1.249 0.3228 1.672 0.9668l1.51 2.299 36.79 56.05c0.9555 1.456 0.06963 3.098-1.672 3.098h-76.59c-1.742 0-2.627-1.642-1.672-3.098l38.29-58.35c0.4226-0.6439 1.047-0.9668 1.672-0.9668zm-0.0039 25.54c-2.625 0-4.703 0.6545-6.234 1.967-1.531 1.312-2.297 3.063-2.406 5.469h4.703c0-1.203 0.3282-2.078 1.094-2.625 0.7656-0.5468 1.641-0.875 2.734-0.875 1.312 0 2.186 0.3282 2.842 0.9844s0.9844 1.641 0.9844 2.953c0 1.094-0.3282 2.078-0.875 2.953s-1.42 1.75-2.404 2.844c-1.422 1.203-2.406 2.188-2.734 2.953-0.3281 0.7655-0.5469 1.969-0.5469 3.828h4.703c0-1.094 0.1075-1.969 0.2168-2.516 0.1094-0.5468 0.6563-1.203 1.422-1.859 1.422-1.203 2.625-2.406 3.609-3.828 0.9843-1.422 1.422-2.844 1.422-4.484 0-2.515-0.7658-4.375-2.188-5.688-1.422-1.312-3.608-2.076-6.342-2.076zm-2.848 23.95v4.484h4.812v-4.484z"/>
</svg>
