<svg width="70" height="78" version="1.1" viewBox="0 0 70 78" xmlns="http://www.w3.org/2000/svg">
	<path d="m22.41 6.774e-5c-1.365 0.143-2.521 1.406-2.542 2.779-0.0165 0.9918-0.0021 1.239 0 1.863 1e-4 0.0297-1e-4 0.05724 0 0.08874-0.1019 2.438-1.11 3.47-3.872 4.612-2.8 1.158-7.27 1.766-12.36 2.011-1.223 0.0571-2.352 0.9958-2.631 2.188-0.7524 3.286-1.005 6.737-1.005 10.11v10.41c0 7.849 3.888 15.57 9.903 22.83 6.015 7.254 14.24 14.11 23.53 20.22 0.9226 0.6109 2.211 0.6109 3.133 0 9.29-6.112 17.52-12.97 23.53-20.22 6.015-7.254 9.903-14.98 9.903-22.83v-10.41c0-3.374-0.2527-6.826-1.005-10.11-0.2793-1.192-1.408-2.131-2.631-2.188-5.087-0.2444-9.556-0.853-12.36-2.011-2.763-1.142-3.771-2.174-3.872-4.612 1e-4 -0.03159-1e-4 -0.05913 0-0.08874 0.0021-0.6237 0.0165-0.8709 0-1.863-0.0307-1.466-1.372-2.779-2.838-2.779-8.637-3.784e-5 -17.39 4.73e-5 -24.89 0v5.774e-5zm2.956 5.677c6.259 3e-5 12.7 0 19.27 0 0.5086 4.21 3.479 7.356 7.213 8.9 3.391 1.402 7.508 1.913 11.91 2.218 0.3518 2.192 0.5616 4.498 0.5616 6.859v10.41c0 5.937-3.094 12.55-8.602 19.19-5.176 6.242-12.45 12.4-20.72 18.01-8.274-5.606-15.55-11.76-20.72-18.01-5.508-6.642-8.602-13.25-8.602-19.19v-10.41c0-2.361 0.2098-4.667 0.5616-6.859 4.405-0.3041 8.522-0.8159 11.91-2.218 3.733-1.543 6.704-4.689 7.213-8.9zm9.607 16.97c-1.496 0.0154-2.839 1.402-2.808 2.898v7.569h-7.863c-1.486 0.0772-2.768 1.5-2.69 2.986 0.0774 1.486 1.5 2.768 2.986 2.69h7.568v7.569c-0.0212 1.5 1.338 2.879 2.838 2.879s2.859-1.379 2.838-2.879v-7.569h7.568c1.499 0.0218 2.878-1.339 2.878-2.838s-1.379-2.86-2.878-2.838h-7.568v-7.569c0.0315-1.516-1.352-2.914-2.867-2.898z"/>
</svg>
