<svg width="86.62" height="77" version="1.1" viewBox="0 0 86.62 77" xmlns="http://www.w3.org/2000/svg">
	<path d="m2.888 0c-1.595 0-2.888 1.293-2.888 2.888 0 1.595 1.293 2.888 2.888 2.888h9.595c4.779 11.84 9.486 23.69 14.23 35.55l-4.361 10.5c-0.3654 0.8751-0.2626 1.93 0.2648 2.719s1.464 1.286 2.412 1.282h48.12c1.526 0.0212 2.929-1.362 2.929-2.888s-1.403-2.909-2.929-2.888h-43.79l2.496-5.956 46.35-3.7c1.213-0.0953 2.312-1.04 2.587-2.226l5.775-25.02c0.3777-1.686-1.1-3.525-2.827-3.519h-63.5l-3.128-7.82c-0.4283-1.059-1.535-1.805-2.677-1.805zm19.67 15.4h57.54l-4.482 19.43-43.88 3.489zm12.09 42.35c-5.282 0-9.625 4.343-9.625 9.625 0 5.282 4.344 9.625 9.625 9.625s9.625-4.344 9.625-9.625-4.344-9.625-9.625-9.625zm28.88 0c-5.282 0-9.625 4.344-9.625 9.625s4.344 9.625 9.625 9.625 9.625-4.344 9.625-9.625c0-5.282-4.344-9.625-9.625-9.625zm-28.88 5.775c2.16 0 3.85 1.69 3.85 3.85s-1.69 3.85-3.85 3.85c-2.16 0-3.85-1.69-3.85-3.85s1.69-3.85 3.85-3.85zm28.88 0c2.16 0 3.85 1.69 3.85 3.85s-1.69 3.85-3.85 3.85c-2.16 0-3.85-1.69-3.85-3.85s1.69-3.85 3.85-3.85z"/>
</svg>
