<svg width="43.21" height="35.2" version="1.1" viewBox="0 0 43.21 35.2" xmlns="http://www.w3.org/2000/svg">
	<path d="m10.93 0.001838c-0.4397-0.01004-0.8854 0.02071-1.336 0.1016-3.676 0.6596-6.905 4.395-8.922 12.87l0.9746 0.2305-0.01953-2e-3 -0.9551-0.2285-0.007812 0.03516c-1.267 6.335-0.7075 10.96 1.512 13.76 2.284 2.874 6.023 3.459 10.21 2.412l0.08984-0.02344 0.08594-0.03906c1.712-0.7903 2.9-1.651 3.719-2.637 0.8277-0.9963 1.222-2.052 1.449-3.127 0.09296-0.4392 0.1548-0.9156 0.2148-1.393 0.03519 0.04545 0.06257 0.09656 0.09961 0.1406 1.308 1.556 3.446 1.88 5.916 1.057l0.06641-0.02344 0.06445-0.03125c1.788-0.8941 2.381-2.578 2.518-4.105l2e-3 2e-3c0.3184 0.2356 0.7078 0.4335 1.158 0.4941 0.466 0.0628 0.9296-0.03098 1.357-0.2715 0.7851-0.4416 1.394-1.348 1.91-2.566h2e-3c0.03505-0.07011 0.05461-0.136 0.08594-0.2051 0.3202 0.3004 0.6847 0.5609 1.096 0.6953 0.4197 0.1372 0.8987 0.1497 1.369-0.06445 0.3126-0.1423 0.5543-0.3737 0.7656-0.6328 0.1045 0.4639 0.196 0.9248 0.3086 1.387 0.247 1.013 0.4996 2.001 0.7363 2.957-0.3624 0.5174-0.7369 1.05-1.072 1.541-0.5556 0.8138-1.062 1.594-1.451 2.311-0.3809 0.7021-0.6928 1.422-0.7891 2.105-0.1019 0.7237 0.03341 1.499 0.6621 2.092 0.5665 0.534 1.386 0.7704 2.295 0.8613 0.7846 0.0784 1.526-0.04378 2.127-0.4883 0.5978-0.4419 0.9033-1.09 1.049-1.742 0.2784-1.248 0.05674-2.909-0.2852-4.588-0.108-0.5301-0.252-1.111-0.3867-1.678 0.7168-1.03 1.456-2.112 2.154-3.248 1.244-2.023 2.378-4.244 2.914-6.521 0.8645-3.674 0.5273-6.167 0.5273-6.729 0-0.5523-0.4478-1-1-1-0.5523 0-1 0.4477-1 1 0 0.7719 0.3201 2.894-0.4746 6.271-0.464 1.972-1.47 3.98-2.67 5.932-0.3534 0.5748-0.7189 1.132-1.086 1.68-0.1033-0.411-0.2079-0.8236-0.3066-1.229-0.4603-1.888-0.8486-3.694-0.9668-5.23l-1.99-0.04102c-0.1963 1.669-0.4859 2.558-0.7383 2.975-0.09041 0.1493-0.1068 0.1426-0.1152 0.1484-0.1398-0.06229-0.4046-0.261-0.7695-0.75-0.2119-0.2838-0.4107-0.6134-0.5996-0.9531-0.1336-0.4238-0.3375-0.7711-0.5762-1.01l-1.613 1.129c0.08804 0.1887 0.1998 0.388 0.3027 0.584 0.071 0.2865 0.09437 0.7762-0.291 1.547l-0.01563 0.03125-0.01367 0.03125c-0.4782 1.148-0.8789 1.544-1.074 1.654-0.0697 0.0391-0.09883 0.0349-0.1113 0.0332-0.0281-0.0038-0.105-0.02344-0.2344-0.1191-0.2774-0.2051-0.6052-0.6175-0.9316-1.205-0.3155-0.5677-0.5841-1.215-0.7773-1.795l-1.924 0.5332c0.1748 0.7867 0.5141 2.155 0.4766 3.506-0.03696 1.327-0.4256 2.335-1.393 2.85-1.98 0.6391-3.1 0.2178-3.676-0.4668-0.6443-0.7668-0.9479-2.232-0.4863-4.303 0.4791-1.183 1.036-2.129 1.721-2.717 0.6457-0.5539 1.456-0.8416 2.637-0.6055 0.5416 0.1083 1.069-0.2436 1.178-0.7852 0.1083-0.5415-0.2437-1.067-0.7852-1.176-1.776-0.3551-3.214 0.08923-4.332 1.049-1.065 0.9141-1.778 2.24-2.305 3.561-0.59 1.479-0.8474 2.817-1.01 4.01-0.1696 1.246-0.2239 2.166-0.4199 3.092-0.1824 0.8621-0.468 1.588-1.029 2.264-0.5587 0.6724-1.453 1.358-2.934 2.053-3.763 0.9188-6.494 0.2528-8.072-1.732-1.656-2.083-2.346-5.954-1.113-12.12 1.983-8.301 4.916-10.89 7.32-11.32 1.24-0.2224 2.522 0.08033 3.75 0.7227 1.229 0.6426 2.344 1.596 3.197 2.566 0.3649 0.4146 0.9975 0.4547 1.412 0.08984 0.4146-0.3649 0.4546-0.9955 0.08984-1.41-0.9797-1.113-2.281-2.238-3.771-3.018-1.118-0.5847-2.376-0.9913-3.695-1.021zm25.08 23.42c0.3219 1.62 0.4351 2.85 0.2656 3.609-0.081 0.3631-0.2014 0.5064-0.2852 0.5684-0.0804 0.0594-0.2749 0.1539-0.7402 0.1074-0.7508-0.0751-1.036-0.2441-1.123-0.3262-0.0249-0.0235-0.09283-0.07352-0.05273-0.3574 0.0457-0.3246 0.22-0.7932 0.5664-1.432 0.3385-0.6239 0.7989-1.336 1.346-2.137 0.0069-0.01015 0.01648-0.02303 0.02344-0.0332zm-34.86 9.781v2h42v-2z"/>
</svg>
