<svg width="37" height="37" version="1.1" viewBox="0 0 37 37" xmlns="http://www.w3.org/2000/svg">
	<path d="m19.92 1.474v-0.05052c0-0.7855-0.6376-1.423-1.423-1.423s-1.423 0.6375-1.423 1.423v0.05123c-9.537 0.6169-17.08 7.377-17.08 15.6 0 0.7856 0.6375 1.423 1.423 1.423h0.2483c0.6027 0 1.141-0.38 1.341-0.9485 0.402-1.135 1.479-1.898 2.68-1.898 0.9549 0 1.841 0.4768 2.372 1.276 0.264 0.3971 0.7087 0.6362 1.185 0.6362s0.9214-0.2384 1.185-0.6362c0.5308-0.7983 1.417-1.276 2.372-1.276 1.201 0 2.278 0.7628 2.68 1.898 0.2007 0.5685 0.7386 0.9485 1.341 0.9485h0.2483v14.23c0 0.7848-0.6382 1.423-1.423 1.423-0.7848 0-1.423-0.6382-1.423-1.423 0-0.7856-0.6376-1.423-1.423-1.423s-1.423 0.6375-1.423 1.423c0 2.354 1.915 4.269 4.269 4.269 2.354 0 4.269-1.915 4.269-4.269v-14.23h0.2483c0.6027 0 1.141-0.38 1.341-0.9478 0.402-1.136 1.478-1.898 2.68-1.898 0.9556 0 1.842 0.4768 2.372 1.275 0.2632 0.3978 0.7087 0.6361 1.185 0.6361s0.9222-0.2383 1.185-0.6361c0.5301-0.7983 1.417-1.275 2.372-1.275 1.201 0 2.278 0.7628 2.68 1.898 0.2006 0.5685 0.7385 0.9485 1.34 0.9485h0.2483c0.7856 0 1.423-0.6375 1.423-1.423 0-8.226-7.539-14.99-17.08-15.6zm11.38 11.33c-1.314 0-2.562 0.4497-3.558 1.249-0.9954-0.799-2.244-1.249-3.558-1.249-2.051 0-3.921 1.111-4.925 2.846h-1.535c-1.004-1.735-2.874-2.846-4.924-2.846-1.314 0-2.562 0.4497-3.558 1.249-0.9962-0.7983-2.244-1.249-3.558-1.249-0.7414 0-1.459 0.1451-2.121 0.4127 2.004-5.184 7.939-8.951 14.93-8.951 6.989 0 12.92 3.768 14.93 8.951-0.6617-0.2668-1.38-0.4127-2.121-0.4127z"/>
</svg>
