<svg width="37" height="34.36" version="1.1" viewBox="0 0 37 34.36" xmlns="http://www.w3.org/2000/svg">
	<path d="m3 0c-1.645 0-3 1.355-3 3v28.36c0 1.645 1.355 3 3 3h31c1.645 0 3-1.355 3-3v-22.01c0-1.645-1.355-3-3-3h-13.37c-1.004 0-1.939-0.5003-2.496-1.336l-2.447-3.672c-0.5557-0.8336-1.494-1.336-2.496-1.336zm0 2h10.2c0.3357 0 0.6459 0.1661 0.832 0.4453l2.447 3.672c0.9267 1.39 2.49 2.227 4.16 2.227h13.37c0.5642 0 1 0.4359 1 1v22.01c0 0.5642-0.4358 1-1 1h-31c-0.5641 0-1-0.4358-1-1v-28.36c0-0.5641 0.4359-1 1-1zm15.46 12.86a1 1 0 0 0-0.01563 2e-3 1 1 0 0 0-0.03125 2e-3 1 1 0 0 0-0.01953 2e-3 1 1 0 0 0-0.01758 2e-3 1 1 0 0 0-0.03516 0.0039 1 1 0 0 0-0.0059 2e-3 1 1 0 0 0-0.0293 0.0059 1 1 0 0 0-0.01367 2e-3 1 1 0 0 0-0.02344 0.0059 1 1 0 0 0-0.0098 2e-3 1 1 0 0 0-0.0078 2e-3 1 1 0 0 0-0.01953 0.0059 1 1 0 0 0-0.0293 0.0078 1 1 0 0 0-0.01953 0.0059 1 1 0 0 0-0.01563 0.0059 1 1 0 0 0-0.04883 0.01758 1 1 0 0 0-0.0039 2e-3 1 1 0 0 0-0.01758 0.0078 1 1 0 0 0-0.0293 0.01367 1 1 0 0 0-0.01172 0.0059 1 1 0 0 0-0.04102 0.02148 1 1 0 0 0-2e-3 0 1 1 0 0 0-0.01758 0.0098 1 1 0 0 0-0.02734 0.01562 1 1 0 0 0-0.01563 0.01172 1 1 0 0 0-2e-3 0 1 1 0 0 0-0.02148 0.01563 1 1 0 0 0-0.0059 0.0039 1 1 0 0 0-0.01953 0.01367 1 1 0 0 0-0.0039 0.0039 1 1 0 0 0-0.01953 0.01367 1 1 0 0 0-0.0059 0.0039 1 1 0 0 0-0.0078 0.0078 1 1 0 0 0-0.02734 0.02344 1 1 0 0 0-0.02148 0.01953 1 1 0 0 0-0.0059 0.0059 1 1 0 0 0-0.02539 0.02539 1 1 0 0 0-0.0293 0.02734 1 1 0 0 0-0.0059 0.0059 1 1 0 0 0-0.01172 0.01563 1 1 0 0 0-0.01758 0.01953l-4.229 5.191a1 1 0 0 0 0.1445 1.406 1 1 0 0 0 1.406-0.1445l2.453-3.01v9.875a1 1 0 0 0 1 1 1 1 0 0 0 1-1v-9.875l2.453 3.01a1 1 0 0 0 1.406 0.1445 1 1 0 0 0 0.1445-1.406l-4.215-5.174a1 1 0 0 0-0.0059-0.0078 1 1 0 0 0-0.0078-0.0098 1 1 0 0 0-0.01367-0.01563 1 1 0 0 0-0.0059-0.0059 1 1 0 0 0-0.02148-0.02539 1 1 0 0 0-0.0078-0.0078 1 1 0 0 0-0.0078-0.0078 1 1 0 0 0-0.0078-0.0078 1 1 0 0 0-0.03516-0.03516 1 1 0 0 0-0.0098-0.0078 1 1 0 0 0-0.0078-0.0059 1 1 0 0 0-0.04687-0.03906 1 1 0 0 0-0.0098-0.0078 1 1 0 0 0-0.0078-0.0059 1 1 0 0 0-0.0059-0.0039 1 1 0 0 0-0.0039-2e-3 1 1 0 0 0-0.04883-0.0332 1 1 0 0 0-2e-3 -2e-3 1 1 0 0 0-0.0098-0.0059 1 1 0 0 0-0.0078-0.0039 1 1 0 0 0-0.04492-0.02539 1 1 0 0 0-0.01172-0.0078 1 1 0 0 0-0.0098-0.0039 1 1 0 0 0-0.01563-0.0078 1 1 0 0 0-0.01563-0.0078 1 1 0 0 0-0.0332-0.01367 1 1 0 0 0-0.0098-0.0039 1 1 0 0 0-2e-3 -2e-3 1 1 0 0 0-0.0098-0.0039 1 1 0 0 0-0.04102-0.01563 1 1 0 0 0-0.02734-0.0078 1 1 0 0 0-0.03516-0.0098 1 1 0 0 0-0.02344-0.0059 1 1 0 0 0-0.01367-0.0039 1 1 0 0 0-0.0078-2e-3 1 1 0 0 0-0.01367-2e-3 1 1 0 0 0-0.04687-0.0098 1 1 0 0 0-0.04492-0.0059 1 1 0 0 0-0.01367-2e-3 1 1 0 0 0-0.01367 0 1 1 0 0 0-0.02344-2e-3 1 1 0 0 0-2e-3 0 1 1 0 0 0-0.04492-2e-3 1 1 0 0 0-0.02344 0 1 1 0 0 0-0.02539 0z"/>
</svg>
