<svg width="32.99" height="35.91" version="1.1" viewBox="0 0 32.99 35.91" xmlns="http://www.w3.org/2000/svg">
	<path d="m22.45 0c-2.731 7.536e-8 -4.973 2.242-4.973 4.973 0 2.731 2.242 4.975 4.973 4.975 2.731-1e-7 4.975-2.244 4.975-4.975 0-2.731-2.244-4.973-4.975-4.973zm0 2.699c1.272 0 2.273 1.002 2.273 2.273 0 1.272-1.002 2.273-2.273 2.273-1.272-2e-7 -2.273-1.002-2.273-2.273 0-1.272 1.002-2.273 2.273-2.273zm-12.28 2.303c-2.747 0-4.973 2.226-4.973 4.973 0 0.3678 0.03946 0.7272 0.1152 1.072h-2.312c-1.657 0-3 1.343-3 3v18.87c0 1.657 1.343 3 3 3h26.68c0.5523 0 1-0.4477 1-1v-5.115c1.265-0.02084 2.312-1.077 2.312-2.346v-7.947c0-1.269-1.048-2.325-2.312-2.346v-5.113c0-0.5523-0.4477-1-1-1h-14.65c0.0758-0.3451 0.1152-0.7045 0.1152-1.072 0-2.747-2.228-4.973-4.975-4.973zm0 2.699c1.256 0 2.273 1.018 2.273 2.273 0 0.3874-0.09668 0.7531-0.2676 1.072h-4.01c-0.1709-0.3192-0.2695-0.6849-0.2695-1.072 0-1.256 1.018-2.273 2.273-2.273zm-7.17 6.045h24.98v3.41h-4.893c-2.386 0-4.35 1.963-4.35 4.35v3.947c0 2.386 1.963 4.35 4.35 4.35h4.893v3.412h-24.98c-0.1657 0-0.3008-0.1351-0.3008-0.3008v-18.87c0-0.1657 0.1351-0.3008 0.3008-0.3008zm20.09 6.109h7.205v7.248h-7.205c-0.9272 0-1.65-0.7232-1.65-1.65v-3.947c0-0.9273 0.7232-1.65 1.65-1.65z"/>
</svg>
