<?xml version="1.0" standalone="no"?>
<!DOCTYPE svg PUBLIC "-//W3C//DTD SVG 1.1//EN" "http://www.w3.org/Graphics/SVG/1.1/DTD/svg11.dtd" >
<svg xmlns="http://www.w3.org/2000/svg">
<metadata>Generated by IcoMoon</metadata>
<defs>
<font id="icomoon" horiz-adv-x="1024">
<font-face units-per-em="1024" ascent="877.8572825024438" descent="-146.14271749755622" />
<missing-glyph horiz-adv-x="1024" />
<glyph unicode="&#x20;" horiz-adv-x="256.25024437927664" d="" />
<glyph unicode="&#xe900;" glyph-name="angle-down" d="M1024 530.586l-512-512-512 512 58.829 58.829 453.226-453.115 453.115 453.115z" />
<glyph unicode="&#xe901;" glyph-name="angle-left" d="M674.585 864l-512-512 512-512 58.829 58.829-453.115 453.226 453.115 453.115z" />
<glyph unicode="&#xe902;" glyph-name="angle-right" d="M349.415 864l512-512-512-512-58.829 58.829 453.115 453.226-453.115 453.115z" />
<glyph unicode="&#xe903;" glyph-name="angle-up" d="M1024 189.415l-512 512-512-512 58.829-58.829 453.226 453.115 453.115-453.115z" />
<glyph unicode="&#xe904;" glyph-name="arrow-down" d="M871.794 191.945l-77.549 78.32-227.415-225.267v819.002h-110.155v-812.393l-228.076 219.539-76.393-79.366 365.329-351.779z" />
<glyph unicode="&#xe905;" glyph-name="arrow-left" d="M351.945-7.794l78.32 77.549-225.267 227.415h819.002v110.155h-812.392l219.539 228.076-79.367 76.392-351.78-365.329z" />
<glyph unicode="&#xe906;" glyph-name="arrow-right" d="M672.055-7.794l-78.32 77.549 225.267 227.415h-819.002v110.155h812.392l-219.539 228.076 79.367 76.392 351.78-365.329z" />
<glyph unicode="&#xe907;" glyph-name="arrow-up" d="M871.794 512.054l-77.549-78.32-227.415 225.267v-819.002h-110.155v812.393l-228.076-219.539-76.393 79.366 365.329 351.779z" />
<glyph unicode="&#xe908;" glyph-name="close" d="M511.962 272.028l428.808-412.38 83.229 79.972-428.88 412.38 428.88 412.307-83.156 80.044-428.88-412.38-428.808 412.38-83.156-80.044 428.808-412.307-428.808-412.307 83.156-80.044z" />
<glyph unicode="&#xe909;" glyph-name="enter" d="M374.705 408.793l-144.305 144.305 80.423 80.423 281.6-281.6-281.6-281.6-80.423 80.423 144.305 144.305h-374.705v113.743zM455.129 863.922h455.129c62.574 0 113.743-51.2 113.743-113.743v-796.356c0-62.574-51.2-113.743-113.743-113.743h-455.129v113.743h455.129v796.356h-455.129z" />
<glyph unicode="&#xe90a;" glyph-name="exit" d="M455.089 864v-113.822h455.050v-796.356h-455.050v-113.822h455.050c62.574 0 113.822 51.271 113.822 113.822v796.356c0 62.574-51.271 113.822-113.822 113.822h-455.050zM281.56 633.521l-281.521-281.521 281.521-281.521 80.423 80.345-144.148 144.305h374.626v113.822h-374.626l144.148 144.305-80.423 80.345z" />
<glyph unicode="&#xe90b;" glyph-name="eye" d="M512.037 708.427c-388.846 0-505.5-336.964-506.612-340.37l-5.425-16.057 5.352-16.057c1.12-3.411 117.913-340.37 506.612-340.37 388.846 0 505.5 336.964 506.612 340.37l5.425 16.057-5.352 16.057c-1.118 3.411-117.913 340.37-506.612 340.37zM512.037 606.586c272.489 0 378.107-195.83 403.66-254.602-25.664-58.956-131.282-254.602-403.66-254.602-272.489 0-378.107 195.83-403.66 254.602 25.664 58.956 131.282 254.602 403.66 254.602zM512.037 504.746c-83.621 0-152.761-69.215-152.761-152.761 0-83.621 69.141-152.761 152.761-152.761 83.546 0 152.761 69.141 152.761 152.761 0 83.546-69.215 152.761-152.761 152.761z" />
<glyph unicode="&#xe90c;" glyph-name="magnify" d="M395.058 863.951c-205.186 0-370.889-172.332-370.889-381.724s165.752-381.823 370.889-381.823c79.313 0 148.682 31.473 208.946 75.207l324.676-335.611 71.15 68.824-322.944 333.78c53.139 66.202 89.11 147.792 89.11 239.672 0 209.391-165.752 381.724-370.889 381.724zM395.058 764.995c149.869 0 271.932-125.13 271.932-282.768s-122.063-282.867-271.932-282.867c-149.869 0-271.932 125.229-271.932 282.867s122.063 282.768 271.932 282.768z" />
<glyph unicode="&#xe90d;" glyph-name="map-marker" d="M512 864c-217.167 0-393.846-183.769-393.846-409.364-1.427-329.964 378.88-603.609 393.846-614.636 0 0 395.264 284.672 393.846 614.4 0 225.831-176.679 409.6-393.846 409.6zM512 249.6c-108.78 0-196.923 91.687-196.923 204.8s88.143 204.8 196.923 204.8 196.923-91.687 196.923-204.8-88.143-204.8-196.923-204.8z" />
<glyph unicode="&#xe90e;" glyph-name="menu" d="M0 697.946v-55.351h1024v55.351h-1024zM0 393.514v-55.351h1024v55.351h-1024zM0 61.405v-55.351h1024v55.351h-1024z" />
<glyph unicode="&#xe90f;" glyph-name="calendar" d="M196.923 864c-108.754 0-196.923-88.169-196.923-196.923v-630.154c0-108.754 88.169-196.923 196.923-196.923h630.154c108.754 0 196.923 88.169 196.923 196.923v630.154c0 108.754-88.169 196.923-196.923 196.923zM196.923 785.231h630.154c65.273 0 118.154-52.88 118.154-118.154v-630.154c0-65.273-52.88-118.154-118.154-118.154h-630.154c-65.273 0-118.154 52.88-118.154 118.154v630.154c0 65.273 52.88 118.154 118.154 118.154zM328.31 662.456c-21.751 0-39.385-17.634-39.385-39.385s17.634-39.385 39.385-39.385h367.275c21.751 0 39.385 17.634 39.385 39.385s-17.634 39.385-39.385 39.385zM328.31 485.855c-21.725 0-39.385-17.66-39.385-39.385s17.66-39.28 39.385-39.28c21.725 0 39.28 17.555 39.28 39.28s-17.555 39.385-39.28 39.385zM512 485.855c-21.725 0-39.385-17.66-39.385-39.385s17.66-39.28 39.385-39.28c21.73 0 39.28 17.555 39.28 39.28s-17.555 39.385-39.28 39.385zM695.69 485.855c-21.73 0-39.385-17.66-39.385-39.385s17.655-39.28 39.385-39.28c21.725 0 39.28 17.555 39.28 39.28s-17.555 39.385-39.28 39.385zM328.31 321.122c-21.725 0-39.385-17.555-39.385-39.28s17.66-39.385 39.385-39.385c21.725 0 39.28 17.66 39.28 39.385s-17.555 39.28-39.28 39.28zM512 321.122c-21.725 0-39.385-17.555-39.385-39.28s17.66-39.385 39.385-39.385c21.73 0 39.28 17.66 39.28 39.385s-17.555 39.28-39.28 39.28zM695.69 321.122c-21.73 0-39.385-17.555-39.385-39.28s17.655-39.385 39.385-39.385c21.725 0 39.28 17.66 39.28 39.385s-17.555 39.28-39.28 39.28zM328.31 150.456c-21.725 0-39.385-17.655-39.385-39.385 0-21.725 17.66-39.28 39.385-39.28s39.28 17.555 39.28 39.28c0 21.73-17.555 39.385-39.28 39.385zM512 150.456c-21.725 0-39.385-17.655-39.385-39.385 0-21.725 17.66-39.28 39.385-39.28 21.73 0 39.28 17.555 39.28 39.28 0 21.73-17.555 39.385-39.28 39.385zM695.69 150.456c-21.73 0-39.385-17.655-39.385-39.385 0-21.725 17.655-39.28 39.385-39.28 21.725 0 39.28 17.555 39.28 39.28 0 21.73-17.555 39.385-39.28 39.385z" />
<glyph unicode="&#xe910;" glyph-name="comment" d="M122.84 863.999c-53.645 0-97.191-46.003-97.191-102.473v-921.527l259.317 204.825h616.194c53.645 0 97.191 45.886 97.191 102.351v614.351c0 56.471-43.545 102.473-97.191 102.473zM122.84 761.526h778.382v-614.351h-648.755l-129.69-102.351zM268.748 607.938v-102.351h486.443v102.351zM268.748 403.236v-102.351h340.535v102.351z" />
<glyph unicode="&#xe911;" glyph-name="copy" d="M292.571 864c-48.479 0-87.771-39.292-87.771-87.771v-29.257h-58.514c-48.128 0-87.771-39.643-87.771-87.771v-731.43c0-48.128 39.643-87.771 87.771-87.771h585.144c48.128 0 87.771 39.643 87.771 87.771v58.514h58.514c48.479 0 87.771 39.292 87.771 87.771v702.172c0 48.479-39.292 87.771-87.771 87.771zM292.571 805.486h585.144c16.159 0 29.257-13.098 29.257-29.257v-702.172c0-16.159-13.098-29.257-29.257-29.257h-58.514v614.401c0 48.128-39.643 87.771-87.771 87.771h-468.114v29.257c0 16.159 13.098 29.257 29.257 29.257zM146.285 688.457h585.144c16.715 0 29.257-12.543 29.257-29.257v-731.43c0-16.715-12.543-29.257-29.257-29.257h-585.144c-16.715 0-29.257 12.543-29.257 29.257v731.43c0 16.715 12.543 29.257 29.257 29.257z" />
<glyph unicode="&#xe912;" glyph-name="libra" d="M1007.306 501.902l-116.967 194.931c6.948 2.289 12.742 7.173 16.173 13.633 3.429 6.46 4.23 13.995 2.237 21.033-1.996 7.036-6.634 13.030-12.944 16.728-6.313 3.698-13.808 4.816-20.922 3.115l-742.994-171.446c-7.387-1.703-13.793-6.272-17.811-12.696s-5.32-14.186-3.621-21.571c1.286-5.373 4.117-10.251 8.144-14.034s9.075-6.301 14.518-7.246l-116.353-193.907c-8.852-14.268-14.368-30.357-16.141-47.060-1.772-16.696 0.247-33.588 5.906-49.381 12.356-32.519 34.317-60.509 62.944-80.261s62.603-30.334 97.397-30.334c34.795 0 68.747 10.58 97.397 30.334 28.627 19.755 50.588 47.743 62.944 80.261 5.659 15.808 7.68 32.701 5.908 49.381-1.773 16.698-7.289 32.769-16.141 47.060l-123.067 205.103 287.185 66.289v-592.802h-171.446c-7.578 0-14.847-3.011-20.205-8.37s-8.37-12.628-8.37-20.208c0-7.578 3.011-14.847 8.37-20.205s12.628-8.37 20.205-8.37h400.056c7.58 0 14.848 3.011 20.208 8.37s8.37 12.628 8.37 20.205c0 7.58-3.011 14.848-8.37 20.208s-12.628 8.37-20.208 8.37h-171.446v606.001l274.669 63.376-105.908-176.498c-8.85-14.268-14.368-30.357-16.141-47.060-1.771-16.698 0.248-33.588 5.908-49.381 12.356-32.519 34.317-60.509 62.944-80.261s62.603-30.334 97.397-30.334 68.747 10.58 97.397 30.334c28.627 19.755 50.588 47.743 62.944 80.261 5.659 15.808 7.678 32.701 5.906 49.381-1.773 16.698-7.289 32.769-16.141 47.060zM254.982 280.529h-176.339c-2.528 0-5.011 0.671-7.196 1.946-2.184 1.272-3.991 3.104-5.236 5.302-1.245 2.2-1.885 4.692-1.853 7.221 0.032 2.526 0.734 5.001 2.034 7.168l100.424 167.373 100.424-167.373c1.302-2.167 2.003-4.642 2.035-7.168 0.032-2.528-0.608-5.020-1.853-7.221-1.247-2.198-3.054-4.030-5.236-5.302-2.185-1.274-4.667-1.946-7.196-1.946zM945.181 451.975h-176.339c-2.528 0-5.011 0.671-7.196 1.946-2.185 1.272-3.991 3.102-5.236 5.302s-1.886 4.692-1.855 7.221c0.032 2.526 0.735 5.001 2.035 7.168l100.424 167.373 100.424-167.373c1.302-2.167 2.003-4.642 2.035-7.171s-0.608-5.018-1.855-7.218c-1.245-2.2-3.052-4.030-5.236-5.305-2.185-1.272-4.667-1.943-7.196-1.943z" />
<glyph unicode="&#xe913;" glyph-name="paperclip" d="M593.382 861.938c-65.911-7.821-127.323-37.655-174.263-84.611l-295.244-295.244c-59.678-59.732-97.62-137.838-107.539-221.691-28.516-240.391 177.461-446.254 417.852-417.743 83.853 9.946 161.851 47.856 221.583 107.539l354.542 354.434-76.751 76.643-354.434-354.434c-42.501-42.501-98.053-69.434-157.731-76.535-173.234-20.554-317.956 124.125-297.358 297.358 7.084 59.678 34.035 115.235 76.535 157.731l295.244 295.244c29.725 29.73 68.675 48.615 110.412 53.569 121.524 14.418 222.342-86.454 207.923-208.032-4.953-41.753-23.839-80.6-53.569-110.303l-317.576-317.576c-18.998-18.998-47.081-24.706-71.982-14.608-45.931 18.624-57.076 73.554-22.018 108.623l376.766 376.874-76.643 76.643-376.766-376.766c-87.158-87.158-56.317-239.524 57.889-285.813 64.989-26.337 139.79-11.161 189.386 38.43l317.684 317.576c46.923 46.929 76.643 108.352 84.502 174.263 22.392 188.681-139.736 350.803-328.417 328.417z" />
<glyph unicode="&#xe914;" glyph-name="pdf" d="M483.994 855.223c-54.562 4.921-100.353-41.707-100.353-110.473 0-59.296 4.649-113.062 23.293-174.684 9.518-31.45 22.661-64.633 40.237-101.316-30.118-96.618-73.006-204.44-133.423-308.588-144.084-52.478-231.185-113.243-277.506-161.974-22.859-24.058-35.931-49.9-36.237-75.536-0.317-26.75 13.457-48.773 34.587-61.501 40.852-24.66 101.196-13.185 147.156 31.762l0.117 0.12v0.12c68.007 67.705 124.507 143.18 171.19 220.825 79.873 27.636 178.118 52.809 297.986 71.861 11.035-8.872 22.293-17.071 33.648-24.708 62.765-42.202 128.964-65.597 197.754-83.908 40.262-10.734 76.619-5.392 103.184 12.824 26.395 18.101 40.924 47.664 38.003 78.487-2.957 31.215-23.154 59.428-57.176 77.162-33.534 17.498-80.355 25.022-140.47 18.703-55.79-4.961-108.123-11.216-157.275-18.468-37.448 33.708-73.729 77.704-108.966 136.373-20.161 33.611-36.991 63.729-50.941 91.317v0.117c29.757 99.81 46.255 186.128 54.706 242.931 5.777 38.84 0.515 71.68-14.234 96.377-14.963 25.003-38.942 39.864-65.296 42.237zM478.699 798.752c6.831-0.615 14.746-4.439 20.823-14.589 6.289-10.505 11.282-29.323 6.825-59.296-6.277-42.225-16.956-100.473-34.238-167.998-3.686 10.077-6.885 19.775-9.765 29.293-16.565 54.754-21.059 102.762-21.059 158.601 0 11.234 1.648 20.276 4.235 27.528 7.758 21.757 24.336 27.269 33.178 26.474zM484.347 397.582c7.963-14.161 16.577-28.805 25.763-44.117 28.335-47.285 57.766-86.378 88.486-118.966-76.74-13.704-144.686-29.991-204.681-47.882 37.201 71.379 66.862 143.12 90.475 210.946zM868.229 209.948c32.948-0.223 56.037-6.457 71.198-14.354 19.745-10.301 25.841-23.179 26.709-32.352 0.91-9.566-3.379-19.63-13.529-26.588-9.975-6.842-27.974-11.92-55.061-4.706-59.453 15.824-113.423 34.738-163.901 65.536l-0.12 0.12c31.323 3.891 63.97 7.337 97.884 10.355h0.47c13.252 1.402 25.371 2.074 36.352 2zM261.655 77.971c-35.238-50.839-75.114-99.81-120.471-144.927-33.594-32.744-65.055-30.28-76.259-23.528-4.892 2.952-7.241 6.867-7.174 12.469 0.079 6.711 3.885 19.697 20.823 37.527 31.624 33.25 89.45 76.68 183.057 118.484z" />
<glyph unicode="&#xe915;" glyph-name="percent" d="M244.892 863.358c-146.935 0-244.892-108.346-244.892-247.86 0-138.030 97.957-243.438 244.892-243.438 148.419 0 247.86 105.408 247.86 243.438 0 139.514-99.441 247.86-247.86 247.86zM782.293 848.5l-632.327-990.080h97.957l633.874 990.080zM244.892 763.902c77.178 0 132.062-59.337 132.062-148.388 0-84.599-54.884-145.482-132.062-145.482-75.693 0-130.64 60.882-130.64 145.482 0 89.051 54.946 148.388 130.64 148.388zM777.655 331.941c-146.935 0-244.892-108.346-244.892-247.86 0-138.030 97.957-243.438 244.892-243.438s246.345 105.408 246.345 243.438c0 139.514-99.41 247.86-246.345 247.86zM777.655 232.468c77.178 0 132.062-59.337 132.062-148.388 0-86.084-54.884-145.482-132.062-145.482s-130.64 59.399-130.64 145.482c0 89.051 53.462 148.388 130.64 148.388z" />
<glyph unicode="&#xe916;" glyph-name="signature" d="M259.066 769.070c-10.42 0.238-20.982-0.49-31.66-2.408-87.113-15.631-163.633-104.152-211.431-304.989l23.096-5.462-0.463 0.047-22.634 5.415-0.185-0.833c-30.025-150.125-16.766-259.727 35.831-326.080 54.126-68.107 142.732-81.97 241.953-57.159l2.129 0.556 2.037 0.925c40.571 18.729 68.724 39.125 88.132 62.491 19.615 23.61 28.959 48.628 34.338 74.103 2.203 10.408 3.668 21.698 5.090 33.011 0.834-1.077 1.483-2.288 2.361-3.332 30.997-36.873 81.662-44.552 140.196-25.048l1.574 0.556 1.527 0.74c42.372 21.188 56.424 61.092 59.671 97.279l0.047-0.047c7.546-5.583 16.774-10.273 27.442-11.709 11.043-1.488 22.029 0.734 32.157 6.434 18.605 10.465 33.035 31.945 45.263 60.808h0.047c0.831 1.662 1.294 3.223 2.037 4.861 7.588-7.119 16.226-13.292 25.973-16.477 9.946-3.251 21.297-3.548 32.442 1.527 7.408 3.372 13.136 8.856 18.143 14.996 2.476-10.993 4.645-21.915 7.313-32.869 5.853-24.006 11.84-47.419 17.449-70.074-8.588-12.261-17.463-24.882-25.404-36.518-13.167-19.285-25.167-37.774-34.385-54.765-9.027-16.638-16.418-33.698-18.7-49.883-2.414-17.15 0.792-35.523 15.69-49.575 13.425-12.655 32.845-18.257 54.387-20.411 18.593-1.858 36.163 1.038 50.405 11.572 14.167 10.472 21.406 25.83 24.859 41.281 6.598 29.574 1.345 68.936-6.759 108.725-2.56 12.562-5.972 26.328-9.164 39.765 16.986 24.409 34.504 50.050 51.045 76.97 29.48 47.941 56.353 100.573 69.055 154.533 20.487 87.065 12.496 146.144 12.496 159.462 0 13.088-10.612 23.698-23.698 23.698-13.088 0-23.698-10.609-23.698-23.698 0-18.292 7.586-68.581-11.247-148.608-10.996-46.732-34.836-94.317-63.273-140.575-8.375-13.621-17.036-26.826-25.736-39.812-2.448 9.739-4.927 19.517-7.265 29.125-10.908 44.742-20.11 87.539-22.911 123.939l-47.159 0.972c-4.652-39.552-11.514-60.619-17.496-70.5-2.142-3.538-2.531-3.379-2.73-3.517-3.313 1.476-9.588 6.185-18.235 17.773-5.021 6.725-9.733 14.536-14.209 22.587-3.166 10.043-7.998 18.273-13.654 23.935l-38.225-26.755c2.086-4.471 4.735-9.194 7.173-13.839 1.682-6.79 2.236-18.394-6.896-36.661l-0.371-0.74-0.324-0.74c-11.332-27.205-20.828-36.589-25.452-39.196-1.652-0.926-2.342-0.827-2.638-0.787-0.666 0.090-2.489 0.556-5.555 2.823-6.574 4.861-14.342 14.634-22.077 28.556-7.476 13.453-13.842 28.792-18.42 42.537l-45.594-12.635c4.142-18.643 12.183-51.069 11.295-83.084-0.876-31.447-10.086-55.334-33.011-67.538-46.921-15.145-73.463-5.161-87.113 11.062-15.268 18.171-22.463 52.893-11.524 101.971 11.353 28.035 24.551 50.453 40.783 64.387 15.302 13.126 34.504 19.944 62.491 14.349 12.835-2.567 25.333 5.773 27.916 18.607 2.567 12.833-5.775 25.285-18.607 27.869-42.087 8.415-76.164-2.115-102.659-24.859-25.238-21.662-42.135-53.083-54.624-84.388-13.982-35.049-20.082-66.756-23.935-95.028-4.019-29.527-5.306-51.329-9.95-73.273-4.322-20.43-11.091-37.632-24.385-53.652-13.24-15.935-34.433-32.181-69.529-48.652-89.174-21.774-153.893-5.991-191.288 41.044-39.244 49.362-55.595 141.096-26.375 287.216 46.992 196.715 116.498 258.068 173.467 268.258 29.385 5.271 59.765-1.904 88.866-17.126 29.125-15.228 55.547-37.821 75.762-60.808 8.647-9.825 23.638-10.776 33.461-2.129 9.825 8.647 10.773 23.591 2.129 33.414-23.216 26.375-54.054 53.035-89.364 71.519-26.494 13.856-56.306 23.492-87.563 24.196zM853.404 214.069c7.628-38.39 10.311-67.538 6.294-85.525-1.919-8.605-4.773-12.001-6.759-13.47-1.905-1.408-6.514-3.647-17.541-2.545-17.792 1.78-24.551 5.785-26.612 7.73-0.59 0.557-2.2 1.742-1.25 8.469 1.083 7.692 5.213 18.797 13.422 33.935 8.021 14.785 18.932 31.66 31.897 50.642 0.164 0.24 0.39 0.546 0.556 0.787zM27.302-17.718v-47.396h995.303v47.396z" />
<glyph unicode="&#xe917;" glyph-name="umbrella" d="M551.52 823.214v1.398c0 21.741-17.648 39.386-39.386 39.386s-39.386-17.645-39.386-39.386v-1.418c-263.969-17.075-472.748-204.183-472.748-431.784 0-21.744 17.645-39.386 39.386-39.386h6.873c16.682 0 31.581 10.518 37.117 26.253 11.127 31.415 40.936 52.533 74.178 52.533 26.431 0 50.956-13.197 65.654-35.318 7.307-10.991 19.616-17.609 32.799-17.609s25.503 6.599 32.799 17.609c14.691 22.095 39.22 35.318 65.654 35.318 33.241 0 63.051-21.113 74.178-52.533 5.556-15.736 20.443-26.253 37.117-26.253h6.873v-393.864c0-21.722-17.665-39.386-39.386-39.386s-39.386 17.665-39.386 39.386c0 21.744-17.648 39.386-39.386 39.386s-39.386-17.645-39.386-39.386c0-65.155 53.004-118.159 118.159-118.159s118.159 53.004 118.159 118.159v393.864h6.873c16.682 0 31.581 10.518 37.117 26.234 11.127 31.443 40.909 52.533 74.178 52.533 26.45 0 50.984-13.197 65.654-35.29 7.285-11.010 19.616-17.606 32.799-17.606s25.526 6.596 32.799 17.606c14.672 22.095 39.22 35.29 65.654 35.29 33.241 0 63.051-21.113 74.178-52.533 5.553-15.736 20.44-26.253 37.089-26.253h6.873c21.744 0 39.386 17.645 39.386 39.386 0 227.683-208.668 414.899-472.748 431.784zM866.501 509.618c-36.37 0-70.912-12.447-98.48-34.57-27.551 22.115-62.11 34.57-98.48 34.57-56.769 0-108.527-30.751-136.317-78.773h-42.486c-27.789 48.022-79.548 78.773-136.289 78.773-36.37 0-70.912-12.447-98.48-34.57-27.574 22.095-62.11 34.57-98.48 34.57-20.521 0-40.383-4.016-58.706-11.423 55.468 143.485 219.739 247.75 413.239 247.75 193.444 0 357.606-104.292 413.239-247.75-18.315 7.385-38.196 11.423-58.706 11.423z" />
<glyph unicode="&#xe918;" glyph-name="upload" d="M83.027 827.468c-45.526 0-83.027-37.501-83.027-83.027v-784.882c0-45.526 37.501-83.027 83.027-83.027h857.946c45.526 0 83.027 37.501 83.027 83.027v609.142c0 45.526-37.501 83.027-83.027 83.027h-370.024c-27.786 0-53.663 13.846-69.078 36.975l-67.723 101.625c-15.379 23.070-41.347 36.975-69.078 36.975zM83.027 772.117h282.292c9.291 0 17.876-4.597 23.026-12.324l67.723-101.625c25.647-38.469 68.912-61.634 115.131-61.634h370.024c15.614 0 27.676-12.064 27.676-27.676v-609.142c0-15.614-12.061-27.676-27.676-27.676h-857.946c-15.612 0-27.676 12.061-27.676 27.676v784.882c0 15.612 12.064 27.676 27.676 27.676zM510.894 416.208c-0.283-0.032-0.431-0.051-0.579-0.072l0.146 0.017c-0.366-0.018-0.666-0.037-0.964-0.062l0.099 0.007c-0.298-0.026-0.484-0.046-0.67-0.068l0.129 0.012c-0.29-0.029-0.457-0.048-0.623-0.070l0.137 0.014c-0.448-0.041-0.782-0.079-1.114-0.124l0.141 0.015c-0.249-0.077-0.303-0.096-0.358-0.114l0.194 0.059c-0.449-0.080-0.722-0.137-0.996-0.198l0.184 0.034c-0.278-0.036-0.407-0.056-0.535-0.076l0.157 0.020c-0.409-0.093-0.626-0.15-0.842-0.208l0.194 0.045c-0.27-0.049-0.362-0.069-0.453-0.088l0.182 0.033c-0.265-0.061-0.337-0.080-0.41-0.099l0.193 0.044c-0.377-0.104-0.557-0.16-0.736-0.217l0.196 0.055c-0.465-0.112-0.736-0.186-1.007-0.265l0.196 0.048c-0.377-0.104-0.557-0.16-0.736-0.217l0.196 0.055c-0.334-0.117-0.477-0.173-0.62-0.228l0.188 0.065c-0.648-0.211-1.096-0.376-1.539-0.553l0.187 0.066c-0.189-0.091-0.225-0.11-0.26-0.128l0.152 0.072c-0.338-0.14-0.498-0.214-0.657-0.287l0.171 0.072c-0.442-0.193-0.709-0.32-0.972-0.45l0.162 0.072c-0.266-0.126-0.371-0.181-0.477-0.236l0.153 0.072c-0.536-0.262-0.907-0.461-1.274-0.666l0.139 0.072c-0.008 0-0.018 0-0.028 0s-0.020 0-0.029 0h0.002c-0.303-0.161-0.462-0.251-0.619-0.343l0.133 0.072c-0.39-0.212-0.637-0.355-0.882-0.502l0.125 0.070c-0.216-0.158-0.358-0.265-0.497-0.372l0.065 0.048c-0.008 0-0.018 0-0.028 0s-0.020 0-0.029 0h0.002c-0.28-0.197-0.473-0.339-0.665-0.483l0.071 0.051c-0.156-0.099-0.209-0.135-0.262-0.171l0.098 0.062c-0.27-0.183-0.447-0.307-0.621-0.434l0.081 0.056c-0.036-0.036-0.072-0.072-0.107-0.107l-0.001-0.001c-0.27-0.183-0.447-0.307-0.621-0.434l0.081 0.056c-0.156-0.099-0.209-0.135-0.262-0.171l0.098 0.062c-0.073-0.072-0.144-0.143-0.214-0.214l-0.003-0.003c-0.295-0.244-0.541-0.456-0.784-0.672l0.027 0.024c-0.225-0.199-0.419-0.375-0.609-0.554l0.015 0.014c-0.056-0.055-0.109-0.108-0.162-0.162l-0.002-0.002c-0.241-0.233-0.47-0.462-0.695-0.695l-0.007-0.008c-0.294-0.264-0.558-0.511-0.817-0.763l0.007 0.007c-0.056-0.055-0.109-0.108-0.162-0.162l-0.002-0.002c-0.059-0.075-0.166-0.216-0.271-0.358l-0.053-0.075c-0.145-0.156-0.304-0.332-0.46-0.51l-0.027-0.031-117.040-143.665c-3.859-4.719-6.198-10.814-6.198-17.454 0-8.634 3.953-16.343 10.148-21.419l0.049-0.039c4.719-3.859 10.814-6.198 17.454-6.198 8.634 0 16.343 3.953 21.419 10.148l0.039 0.049 67.889 83.304v-273.298c0-15.285 12.391-27.676 27.676-27.676v0c15.285 0 27.676 12.391 27.676 27.676v0 273.298l67.889-83.304c5.114-6.244 12.825-10.197 21.458-10.197 6.641 0 12.735 2.338 17.504 6.237l-0.049-0.039c6.244 5.114 10.197 12.825 10.197 21.458 0 6.641-2.338 12.735-6.237 17.504l0.039-0.049-116.653 143.194c-0.104 0.14-0.158 0.211-0.212 0.28l0.048-0.065c-0.114 0.147-0.185 0.235-0.256 0.322l0.041-0.051c-0.153 0.178-0.277 0.319-0.401 0.459l0.023-0.026c-0.055 0.056-0.108 0.109-0.162 0.162l-0.002 0.002c-0.229 0.28-0.423 0.508-0.621 0.734l0.027-0.032c-0.072 0.073-0.143 0.144-0.214 0.214l-0.003 0.003c-0.072 0.073-0.143 0.144-0.214 0.214l-0.003 0.003c-0.072 0.073-0.143 0.144-0.214 0.214l-0.003 0.003c-0.32 0.336-0.637 0.653-0.962 0.962l-0.011 0.010c-0.036 0.031-0.124 0.101-0.214 0.172l-0.058 0.045c-0.005 0.006-0.075 0.059-0.146 0.112l-0.070 0.051c-0.384 0.342-0.806 0.696-1.238 1.036l-0.059 0.045c-0.036 0.031-0.124 0.101-0.214 0.172l-0.058 0.045c-0.005 0.006-0.075 0.059-0.146 0.112l-0.070 0.051c0.046-0.027-0.007 0.008-0.061 0.044l-0.102 0.064c0.117-0.054 0.082-0.035 0.046-0.018l-0.154 0.072c-0.353 0.26-0.793 0.563-1.243 0.853l-0.109 0.066c-0.019 0.019-0.037 0.037-0.055 0.055l-0.001 0.001c0.031-0.014-0.058 0.040-0.147 0.094l-0.124 0.070c0.085-0.036 0.014 0-0.057 0.035l-0.159 0.072c-0.278 0.174-0.683 0.407-1.097 0.631l-0.147 0.072c-0.010 0.010-0.116 0.082-0.222 0.152l-0.102 0.064c0.095-0.031 0.005 0.007-0.085 0.042l-0.187 0.066c0.013 0.001-0.129 0.072-0.271 0.144l-0.161 0.072c0.013 0.001-0.129 0.072-0.271 0.144l-0.161 0.072c-0.124 0.063-0.426 0.19-0.732 0.313l-0.187 0.066c0.095-0.031 0.005 0.007-0.085 0.042l-0.187 0.066c-0.019 0.019-0.037 0.037-0.055 0.055l-0.001 0.001c0.095-0.031 0.005 0.007-0.085 0.042l-0.187 0.066c-0.188 0.086-0.564 0.233-0.943 0.371l-0.192 0.061c-0.055 0.025-0.308 0.099-0.562 0.17l-0.194 0.046c-0.127 0.047-0.452 0.14-0.78 0.228l-0.193 0.044c-0.022 0.014-0.241 0.071-0.459 0.124l-0.189 0.039c0.070-0.013-0.057 0.024-0.183 0.060l-0.195 0.047c0.122-0.025 0.049-0.006-0.023 0.013l-0.192 0.042c0.028 0-0.101 0.020-0.23 0.038l-0.148 0.018c-0.245 0.066-0.683 0.161-1.125 0.244l-0.173 0.027c-0.265 0.046-0.69 0.104-1.118 0.152l-0.125 0.011c0.028 0-0.101 0.020-0.23 0.038l-0.148 0.018c-0.057 0-0.123 0.001-0.189 0.001s-0.133 0-0.2-0.001h0.010c-0.107 0.013-0.331 0.033-0.555 0.049l-0.093 0.006c-0.008 0-0.018 0-0.028 0s-0.020 0-0.029 0h0.002c-0.344 0.025-0.776 0.045-1.212 0.055l-0.032 0.001c-0.097 0.001-0.21 0.002-0.324 0.002s-0.228-0.001-0.342-0.002h0.018c-0.104 0.002-0.228 0.002-0.351 0.002s-0.247-0.001-0.37-0.003h0.019z" />
<glyph unicode="&#xe919;" glyph-name="book" d="M131.415 695.080c-11.849 0-21.549-9.7-21.549-21.549v-56.007h-88.317c-11.849 0-21.549-9.7-21.549-21.549v-565.515c0-11.849 9.7-21.549 21.549-21.549h980.902c11.849 0 21.549 9.7 21.549 21.549v566.603c-1.079 10.77-10.761 20.47-22.61 20.47h-90.493v56.007c0 11.849-9.7 21.549-21.549 21.549-130.364 0-258.552-25.864-379.125-75.408-120.664 50.632-247.764 75.408-379.216 75.408zM152.964 653.061c117.4-3.232 229.452-26.925 337.152-71.093v-520.277c-107.7 42.010-220.839 65.717-337.152 67.865zM870.328 653.061v-523.541c-117.4-2.154-229.452-25.855-337.152-67.865v520.277c107.7 44.168 220.839 67.857 337.152 71.093zM42 575.504h70.014v-467.515c0-11.849 9.7-21.549 21.549-21.549 86.178 0 170.162-12.937 252.025-35.555h-343.588zM911.304 575.504h70.014v-523.541h-343.588c81.863 22.619 165.901 35.555 252.025 35.555 11.849 0 21.549 9.7 21.549 21.549zM346.968 504.039c-6.746 0.494-13.752-2.659-17.424-9.736l-99.722-192.554c-5.89-11.378 1.544-25.112 14.287-26.381l171.884-17.189c13.154-1.315 23.254 11.441 18.947 23.943l-72.208 209.689c-2.595 7.537-9.066 11.668-15.81 12.166zM697.99 489.326c-8.618 0-16.155-6.464-19.391-14.006-28.004-79.714-40.931-116.312-66.786-183.126-4.309-10.77 1.092-22.619 11.867-26.934 2.155-1.078 5.371-1.080 7.525-1.080 8.617 0 16.155 5.386 19.391 12.927 4.309 9.691 7.552 19.391 10.779 28.013 16.155 3.232 29.092 5.392 40.94 8.623 10.77 2.154 21.531 4.311 34.458 7.543 3.231-7.54 5.392-15.095 8.623-23.707 4.309-10.77 16.164-16.155 26.934-11.849s16.155 16.155 11.849 26.934c-24.776 70.014-38.782 102.351-65.708 163.725-3.232 7.541-10.77 12.927-20.47 12.927zM340.622 417.082l37.713-109.513-89.786 8.977zM702.341 409.61c7.541-17.234 14.006-32.31 20.47-50.622-10.77-1.077-19.391-3.229-28.013-5.383-4.309-1.077-9.7-2.162-14.006-3.24 7.541 19.391 14.006 37.704 21.549 59.244z" />
<glyph unicode="&#xe91a;" glyph-name="drawer" d="M1024 432.706v-417.588c0-49.61-40.451-89.833-90.344-89.833h-843.256c-49.895 0-90.344 40.223-90.344 89.833v417.588c-0.411 6.7 1.457 13.677 6.16 19.821l240.881 314.386c5.696 7.434 14.553 11.8 23.951 11.8h481.877c9.399 0 18.263-4.363 23.951-11.8l240.881-314.386c4.704-6.139 6.572-13.119 6.161-19.821zM60.247 404.431v-389.257c0-16.533 13.483-29.948 30.118-29.948h843.256c16.635 0 30.118 13.404 30.118 29.948v389.257h-903.448zM90.935 464.316h842.118l-195.026 254.536h-452.065l-195.026-254.536zM361.4 284.65h301.187c16.635 0 30.118-13.404 30.118-29.948v-119.815c0-16.533-13.483-29.948-30.118-29.948h-301.187c-16.635 0-30.118 13.404-30.118 29.948v119.815c0 16.533 13.483 29.948 30.118 29.948zM391.519 224.765v-59.884h240.881v59.884h-240.881zM240.982 509.227c-16.635 0-30.118 13.404-30.118 29.948 0 16.533 13.483 29.948 30.118 29.948h542.069c16.635 0 30.118-13.404 30.118-29.948 0-16.533-13.483-29.948-30.118-29.948h-542.069zM316.273 614.022c-16.635 0-30.118 13.404-30.118 29.948s13.483 29.948 30.118 29.948h391.532c16.635 0 30.118-13.404 30.118-29.948s-13.483-29.948-30.118-29.948h-391.532z" />
<glyph unicode="&#xe91b;" glyph-name="pulse" d="M309.367 813.306c-9.166 0.354-18.468 0.177-27.876-0.544-37.633-2.885-76.881-14.835-115.211-39.472-75.99-48.866-120.034-114.514-143.087-175.757-23.039-61.243-26.167-117.302-21.125-155.101 2.352-17.162 16.918-30.244 34.539-30.244 1.622 0 3.217 0.111 4.78 0.325l-0.181-0.021c17.162 2.352 30.244 16.918 30.244 34.539 0 1.622-0.111 3.217-0.325 4.78l0.021-0.181c-3.209 24.057-1.361 71.92 17.258 121.399 18.621 49.508 52.937 101.384 115.545 141.609 58.427 37.549 110.807 35.403 159.143 17.748 48.337-17.646 90.596-53.521 113.204-80.31 14.694-17.434 42.455-18.97 58.957-3.32 24.311 23.020 70.080 54.246 123.741 69.634 53.661 15.382 114.236 16.377 177.931-17.587 82.792-44.156 113.678-109.246 117.106-180.497 3.44-71.223-24.845-148.104-66.149-200.204-76.937-97.036-263.985-252.444-380.505-357.647l-261.113 249.796c-6.244 5.973-14.728 9.651-24.071 9.651-9.911 0-18.856-4.138-25.201-10.781l-0.013-0.014c-5.972-6.244-9.649-14.727-9.649-24.069 0-9.884 4.116-18.806 10.726-25.148l0.012-0.012 265.629-254.089c23.661-22.633 61.578-23.028 85.746-1.144 113.399 102.751 303.847 257.824 393.050 370.191 51.932 65.508 85.523 155.686 81.119 246.841-4.404 91.182-51.097 183.814-153.903 238.646-80.896 43.124-162.907 42.288-229.921 23.084-55.306-15.853-97.789-43.152-130.348-69.522-30.051 30.58-69.69 62.665-122.459 81.927-23.895 8.725-50.149 14.398-77.634 15.462zM444.816 550.074c-13.938 1.229-30.273-6.919-37.131-20.907l-76.826-157.247-50.205 53.577c-15.811 16.878-44.964 14.827-58.261-4.084l-44.713-63.697h-84.715c-19.244 0-34.845-15.6-34.845-34.845v0c0-19.244 15.6-34.845 34.845-34.845v0h101.384c12.246 0 23.739 6.026 30.775 16.006l31.639 45.019 54.999-58.679h0.056c17.238-18.39 50.177-13.406 61.243 9.255l60.658 123.964 52.964-184.678c4.296-14.986 18.914-25.877 32.838-27.115 13.918-1.237 30.217 6.913 37.075 20.907l50.79 103.336 22.485-32.001c7.049-10.027 18.49-16.006 30.775-16.006h101.384c19.244 0 34.845 15.6 34.845 34.845v0c0 19.244-15.6 34.845-34.845 34.845v0h-84.715l-43.988 62.665c-15.524 22.097-52.658 19.204-64.56-5.062l-37.995-77.244-53.020 184.956c-4.301 14.967-18.95 25.83-32.893 27.059z" />
<glyph unicode="&#xe91c;" glyph-name="question-sign" d="M512.030 762.106c-52.039-4.492-58.127-18.801-87.056-62.906l-411.723-627.265c-35.7-54.411 5.11-130.041 70.18-130.041h857.131c65.077 0 105.891 75.585 70.18 130.041l-411.723 627.265c-22.875 40.792-41.228 62.346-87.056 62.906zM512.030 701.976c6.991 0 13.978-3.612 18.712-10.82l428.621-652.993c10.693-16.294 0.779-34.67-18.712-34.67h-857.131c-19.495 0-29.399 18.376-18.712 34.67l428.51 653.005c4.73 7.206 11.717 10.82 18.712 10.82zM511.987 416.153c-29.377 0-52.632-7.325-69.766-22.013-17.134-14.683-25.706-34.279-26.926-61.204h52.632c0 13.463 3.673 23.256 12.243 29.377 8.568 6.119 18.365 9.792 30.597 9.792 14.683 0 24.464-3.673 31.805-11.017s11.017-18.365 11.017-33.048c0-12.243-3.673-23.256-9.792-33.048s-15.891-19.585-26.903-31.828c-15.914-13.463-26.926-24.487-30.597-33.048-3.672-8.566-6.12-22.036-6.12-42.839h52.632c0 12.243 1.203 22.036 2.426 28.157 1.225 6.119 7.345 13.463 15.914 20.805 15.914 13.463 29.377 26.926 40.389 42.839 11.016 15.914 15.914 31.828 15.914 50.181 0 28.146-8.57 48.961-24.487 63.655-15.914 14.683-40.378 23.233-70.975 23.233zM480.115 148.125v-50.181h53.852v50.181z" />
<glyph unicode="&#xe91d;" glyph-name="shield" d="M345.805 864c-18.019-1.887-33.279-18.56-33.557-36.685-0.218-13.093-0.028-16.356 0-24.594 0.001-0.392-0.001-0.755 0-1.171-1.345-32.184-14.653-45.808-51.114-60.883-36.963-15.286-95.971-23.313-163.165-26.547-16.145-0.754-31.049-13.145-34.731-28.884-9.933-43.378-13.267-88.935-13.267-133.462v-137.423c0-103.614 51.325-205.539 130.73-301.379 79.404-95.76 187.982-186.266 310.62-266.924 12.179-8.064 29.187-8.064 41.359 0 122.637 80.685 231.281 171.217 310.62 266.924 79.404 95.76 130.73 197.751 130.73 301.379v137.423c0 44.541-3.335 90.11-13.267 133.462-3.687 15.736-18.587 28.131-34.731 28.884-67.153 3.227-126.149 11.26-163.165 26.547-36.474 15.075-49.78 28.699-51.114 60.883 0.001 0.417-0.001 0.78 0 1.171 0.028 8.233 0.218 11.496 0 24.594-0.405 19.353-18.112 36.685-37.465 36.685-114.017 0-229.565-0.001-328.573 0v-0.001zM384.827 789.058c82.625 0 167.652 0 254.384 0 6.714-55.576 45.926-97.106 95.219-117.489 44.765-18.508 99.113-25.253 157.224-29.279 4.645-28.937 7.414-59.378 7.414-90.545v-137.423c0-78.374-40.844-165.672-113.555-253.327-68.329-82.4-164.352-163.693-273.524-237.75-109.225 74.005-205.276 155.244-273.524 237.75-72.711 87.681-113.555 174.913-113.555 253.327v137.423c0 31.168 2.769 61.609 7.414 90.545 58.151 4.014 112.499 10.77 157.224 29.279 49.28 20.369 88.499 61.899 95.219 117.489zM511.649 565.038c-19.749-0.203-37.478-18.508-37.068-38.257v-99.918h-103.799c-19.617-1.019-36.54-19.801-35.511-39.418 1.022-19.617 19.801-36.54 39.418-35.511h99.905v-99.918c-0.28-19.801 17.663-38.006 37.465-38.006s37.742 18.204 37.465 38.006v99.918h99.905c19.788-0.288 37.992 17.676 37.992 37.465s-18.204 37.755-37.992 37.465h-99.905v99.918c0.416 20.012-17.847 38.468-37.848 38.257z" />
<glyph unicode="&#xe91e;" glyph-name="shopping-cart" d="M34.139 807.104c-18.854 0-34.139-15.284-34.139-34.139s15.284-34.139 34.139-34.139h113.421c56.492-139.96 112.132-280.036 168.212-420.233l-51.551-124.119c-4.319-10.345-3.104-22.814 3.13-32.141s17.306-15.202 28.512-15.154h568.821c18.039-0.251 34.623 16.1 34.623 34.139s-16.585 34.387-34.623 34.139h-517.636l29.505 70.405 547.898 43.737c14.338 1.126 27.33 12.294 30.581 26.313l68.266 295.759c4.465 19.93-13.003 41.669-33.417 41.598h-750.626l-36.975 92.439c-5.063 12.518-18.145 21.337-31.645 21.337zM266.655 625.062h680.173l-52.981-229.68-518.7-41.243zM409.57 124.448c-62.438 0-113.776-51.338-113.776-113.776s51.35-113.776 113.776-113.776 113.776 51.35 113.776 113.776-51.35 113.776-113.776 113.776zM750.957 124.448c-62.438 0-113.776-51.35-113.776-113.776s51.35-113.776 113.776-113.776 113.776 51.35 113.776 113.776c0 62.438-51.35 113.776-113.776 113.776zM409.57 56.182c25.533 0 45.51-19.977 45.51-45.51s-19.977-45.51-45.51-45.51c-25.533 0-45.51 19.977-45.51 45.51s19.977 45.51 45.51 45.51zM750.957 56.182c25.533 0 45.51-19.977 45.51-45.51s-19.977-45.51-45.51-45.51c-25.533 0-45.51 19.977-45.51 45.51s19.977 45.51 45.51 45.51z" />
<glyph unicode="&#xe91f;" glyph-name="wallet" d="M681.744 864c-77.861 0-141.781-63.92-141.781-141.781s63.92-141.838 141.781-141.838c77.861 0 141.838 63.977 141.838 141.838s-63.977 141.781-141.838 141.781zM681.744 787.051c36.265 0 64.803-28.567 64.803-64.803 0-36.265-28.567-64.803-64.803-64.803-36.265 0-64.803 28.567-64.803 64.803 0 36.265 28.567 64.803 64.803 64.803zM331.639 721.392c-78.318 0-141.781-63.464-141.781-141.781 0-10.486 1.125-20.733 3.284-30.563h-65.915c-47.242 0-85.53-38.29-85.53-85.53v-537.987c0-47.242 38.29-85.53 85.53-85.53h760.652c15.746 0 28.51 12.764 28.51 28.51v145.83c36.065 0.594 65.915 30.705 65.915 66.885v226.571c0 36.179-29.878 66.286-65.915 66.885v145.773c0 15.746-12.764 28.51-28.51 28.51h-417.674c2.161 9.839 3.284 20.085 3.284 30.563 0 78.318-63.521 141.781-141.838 141.781zM331.639 644.443c35.809 0 64.803-29.023 64.803-64.803 0-11.045-2.756-21.471-7.63-30.563h-114.326c-4.872 9.1-7.684 19.526-7.684 30.563 0 35.809 29.023 64.803 64.803 64.803zM127.221 472.1h712.184v-97.22h-139.5c-68.026 0-124.019-55.965-124.019-124.019v-112.53c0-68.026 55.965-124.019 124.019-124.019h139.5v-97.277h-712.184c-4.724 0-8.576 3.851-8.576 8.576v537.987c0 4.724 3.851 8.576 8.576 8.576zM699.99 297.931h205.416v-206.642h-205.416c-26.435 0-47.042 20.619-47.042 47.042v112.53c0 26.438 20.619 47.042 47.042 47.042z" />
</font>
</defs>
</svg>
