<svg width="49.5" height="48.43" fill="none" version="1.1" viewBox="0 0 49.5 48.43" xmlns="http://www.w3.org/2000/svg">
	<path d="m11.93 4.267c0.6541-2.457 2.894-4.267 5.557-4.267h18.62l13.4 13.19v29.49c0 3.176-2.574 5.75-5.75 5.75h-26.27c-2.663 0-4.903-1.81-5.557-4.267h-0.8423c-2.664 0-4.905-1.812-5.558-4.271-3.072-0.118-5.525-2.645-5.525-5.746v-19.87c0-3.1 2.454-5.628 5.525-5.746 0.6526-2.459 2.894-4.271 5.558-4.271zm-0.1932 1.5h-0.6491c-2.347 0-4.25 1.903-4.25 4.25v28.4c0 2.347 1.903 4.25 4.25 4.25h0.6491zm-6.399 4.287c-2.152 0.2094-3.833 2.023-3.833 4.23v19.87c0 2.207 1.682 4.02 3.833 4.23zm12.15-8.554c-2.347 0-4.25 1.903-4.25 4.25v36.93c0 2.347 1.903 4.25 4.25 4.25h26.27c2.347 0 4.25-1.903 4.25-4.25v-28.43h-7.202c-3.176 0-5.75-2.574-5.75-5.75v-7.004zm19.06 1.041 10.37 10.21h-6.122c-2.347 0-4.25-1.903-4.25-4.25zm-12.63 21.84h13.41c-0.3944-3.11-3.21-5.577-6.703-5.577-3.493 0-6.308 2.467-6.703 5.577zm-1.547 0.75c0-4.363 3.735-7.827 8.25-7.827 4.515 0 8.25 3.464 8.25 7.827v0.75h-7.5v5.923c0 1.657-1.343 3-3 3h-0.25c-1.519 0-2.75-1.231-2.75-2.75h1.5c0 0.6904 0.5597 1.25 1.25 1.25h0.25c0.8285 0 1.5-0.6715 1.5-1.5v-5.923h-7.5z" clip-rule="evenodd" fill="#808080" fill-rule="evenodd"/>
</svg>
