<svg width="30" height="15" version="1.1" viewBox="0 0 30 15" xmlns="http://www.w3.org/2000/svg">
	<path d="m0 0v15h4.285c1.136-0.0014 2.226-0.4525 3.029-1.256s1.256-1.893 1.258-3.029v-6.43c-0.00142-1.136-0.4544-2.226-1.258-3.029-0.8034-0.8034-1.893-1.254-3.029-1.256h-4.285zm12.86 0c-0.5681 5.673e-4 -1.114 0.2272-1.516 0.6289-0.4017 0.4017-0.6264 0.9455-0.627 1.514v10.71c6e-4 0.5682 0.2253 1.112 0.627 1.514 0.4018 0.4018 0.9475 0.6283 1.516 0.6289h4.285c0.5681-6e-4 1.114-0.2271 1.516-0.6289 0.4017-0.4017 0.6264-0.9455 0.627-1.514v-10.71c-6e-4 -0.5682-0.2253-1.112-0.627-1.514-0.4018-0.4017-0.9475-0.6283-1.516-0.6289h-4.285zm10.71 0c-0.5681 5.673e-4 -1.114 0.2272-1.516 0.6289-0.4017 0.4017-0.6284 0.9455-0.6289 1.514v10.71c5e-4 0.5682 0.2272 1.112 0.6289 1.514 0.4018 0.4018 0.9475 0.6283 1.516 0.6289h6.428v-2.143h-6.428v-10.71h6.428v-2.143h-6.428zm-21.43 2.143h2.143c0.5682 5.6e-4 1.114 0.2272 1.516 0.6289s0.6264 0.9455 0.627 1.514v6.43c-5.7e-4 0.5681-0.2252 1.112-0.627 1.514-0.4017 0.4017-0.9475 0.6284-1.516 0.6289h-2.143v-10.71zm10.71 0h4.285v10.71h-4.285v-10.71z" fill="#808080"/>
</svg>
