<svg width="47.75" height="55.39" fill="none" version="1.1" viewBox="0 0 47.75 55.39" xmlns="http://www.w3.org/2000/svg">
	<path d="m22.24 0-16.78 0.08008c-3.03 0.01468-5.475 2.484-5.461 5.514l0.1699 35.23c0.003213 1.456 0.588 2.849 1.625 3.871 1.025 1.021 2.415 1.594 3.861 1.59h0.02734l16.56-0.09375c1.945 6.315 8.306 10.18 14.81 8.99 6.5-1.187 11.09-7.048 10.67-13.64-0.4121-6.594-5.692-11.84-12.29-12.21l-0.0918-16.61c-1e-3 -0.1872-0.07588-0.3663-0.209-0.498l-12.14-12c-0.1156-0.1143-0.2661-0.1841-0.4277-0.1992l-0.2539-0.02344c-0.0238-0.002294-0.04691-0.003906-0.07031-0.003906zm-0.4707 1.412 0.0332 6.619c0.0142 3.02 2.465 5.46 5.484 5.461h0.02734l6.619-0.0332 0.08789 15.87c-3.759 0.1991-7.249 2.012-9.572 4.973-2.324 2.961-3.255 6.782-2.555 10.48l-16.22 0.0918h-0.01952c-2.244-5e-4 -4.065-1.815-4.076-4.059l-0.1699-35.23c-0.0078-1.082 0.4161-2.122 1.18-2.889 0.759-0.7709 1.795-1.205 2.877-1.207zm1.414 0.9863 9.77 9.656-5.645 0.02734c-2.252 0.0106-4.087-1.807-4.098-4.059zm11.52 28.32c6.42 0.0074 11.62 5.211 11.63 11.63 0 6.423-5.208 11.63-11.63 11.63-6.423 0-11.63-5.206-11.63-11.63 0-6.423 5.206-11.63 11.63-11.63zm4.582 8.26c-0.1207 0.02013-0.2364 0.07159-0.334 0.1523l-6.033 4.908-2.373-2.777c-0.2528-0.296-0.6962-0.331-0.9922-0.07813-0.2959 0.2528-0.333 0.6982-0.08008 0.9941l2.82 3.301c0.2487 0.291 0.6836 0.3292 0.9805 0.08789l6.566-5.342c0.1978-0.1583 0.2953-0.4097 0.2559-0.6602-0.0395-0.2501-0.2105-0.4593-0.4473-0.5488-0.1184-0.04475-0.2425-0.05723-0.3633-0.03711z" fill="#808080"/>
</svg>
