<svg width="20" height="19.41" version="1.1" viewBox="0 0 20 19.41" xmlns="http://www.w3.org/2000/svg">
	<path d="m10 16.71c0.946 0 1.81-0.103 2.598-0.281l-1.757-1.757c-0.273 0.021-0.55 0.038-0.841 0.038-5.351 0-7.424-3.846-7.926-5 0.377-0.8412 0.886-1.617 1.508-2.297l-1.398-1.398c-1.538 1.667-2.121 3.346-2.132 3.379-0.06898 0.2054-0.06898 0.4276 0 0.633 0.021 0.066 2.315 6.683 9.948 6.683zm0-14c-1.837 0-3.346 0.396-4.604 0.981l-3.689-3.688-1.414 1.414 18 18 1.414-1.414-3.319-3.319c2.614-1.951 3.547-4.615 3.561-4.657 0.069-0.2054 0.069-0.4276 0-0.633-0.022-0.067-2.316-6.684-9.949-6.684zm4.972 10.56-2.28-2.28c0.19-0.39 0.308-0.819 0.308-1.278 0-1.641-1.359-3-3-3-0.459 0-0.888 0.118-1.277 0.309l-1.808-1.808c0.9925-0.3406 2.036-0.51 3.085-0.501 5.351 0 7.424 3.846 7.926 5-0.302 0.692-1.166 2.342-2.954 3.558z"/>
</svg>
