<svg width="20" height="14" version="1.1" viewBox="0 0 20 14" xmlns="http://www.w3.org/2000/svg">
	<path d="m10 0c-1.837 0-3.17 0.3433-4.604 0.9805-1.208 0.5366-2.328 1.343-3.213 2.324-1.516 1.68-2.02 3.069-2.133 3.379-0.06898 0.2054-0.06898 0.4275 0 0.6328 0.021 0.066 2.316 6.684 9.949 6.684 0.946 0 1.81-0.1032 2.598-0.2812 2.238-0.6538 2.275-0.8557 3.791-1.744 2.614-1.951 3.547-4.616 3.561-4.658 0.069-0.2054 0.069-0.4275 0-0.6328-0.022-0.067-2.316-6.684-9.949-6.684zm0 2c5.351 0 7.424 3.846 7.926 5-0.302 0.692-1.155 2.357-2.953 3.559-0.5236 0.3499-1.673 1.081-4.133 1.404-0.273 0.021-0.5489 0.03711-0.8398 0.03711-5.351 0-7.424-3.846-7.926-5 0.377-0.8412 0.8611-1.648 1.508-2.297 0.9402-0.9429 2.092-1.719 3.332-2.203 0.9704-0.3791 2.037-0.509 3.086-0.5zm0.0293 1.996c-1.624 0.00468-2.938 1.323-2.938 2.947 3.77e-4 1.626 1.319 2.945 2.945 2.945 1.627 7.02e-4 2.947-1.318 2.947-2.945 7.03e-4 -1.628-1.319-2.948-2.947-2.947-0.0026-3.4e-6 -0.0052-3.4e-6 -0.0078 0z"/>
</svg>
