<svg width="17.5" height="17.5" version="1.1" viewBox="0 0 17.5 17.5" xmlns="http://www.w3.org/2000/svg">
	<path d="m8.75 0c-4.832 0-8.75 3.918-8.75 8.75 0 4.832 3.918 8.75 8.75 8.75 4.832 0 8.75-3.918 8.75-8.75 0-4.832-3.918-8.75-8.75-8.75zm0 1.484c4.012 0 7.266 3.254 7.266 7.266 0 4.012-3.254 7.266-7.266 7.266-4.012 0-7.266-3.254-7.266-7.266 0-4.012 3.254-7.266 7.266-7.266zm0 2.891c-0.2486 0-0.4863 0.09957-0.6621 0.2754-0.1758 0.1758-0.2754 0.4135-0.2754 0.6621s0.09957 0.4863 0.2754 0.6621c0.1758 0.1758 0.4135 0.2754 0.6621 0.2754 0.2486 0 0.4863-0.09957 0.6621-0.2754 0.1758-0.1758 0.2754-0.4135 0.2754-0.6621s-0.09959-0.4863-0.2754-0.6621c-0.1758-0.1758-0.4135-0.2754-0.6621-0.2754zm-0.4688 3.125c-0.08594 0-0.1562 0.07031-0.1562 0.1562v5.312c0 0.0859 0.07031 0.1562 0.1562 0.1562h0.9375c0.0859 0 0.1562-0.07035 0.1562-0.1562v-5.312c0-0.08594-0.07035-0.1562-0.1562-0.1562h-0.9375z"/>
</svg>
