<svg width="30" height="15" version="1.1" viewBox="0 0 30 15" xmlns="http://www.w3.org/2000/svg">
	<path d="m6.428 0v12.86h-4.285v-2.143h-2.143v2.143c-7.401e-17 0.5684 0.2251 1.114 0.627 1.516 0.4019 0.4018 0.9473 0.627 1.516 0.627h4.285c0.5683 0 1.114-0.2252 1.516-0.627 0.4019-0.4019 0.6289-0.9472 0.6289-1.516v-12.86h-2.145zm4.287 0v15h2.143v-5.357h4.285c0.5683 0 1.114-0.2251 1.516-0.627 0.4018-0.4019 0.627-0.9473 0.627-1.516v-5.357c0-0.5683-0.2252-1.114-0.627-1.516-0.4019-0.4019-0.9473-0.627-1.516-0.627h-6.428zm12.86 0c-0.5683 0-1.114 0.2251-1.516 0.627-0.4019 0.4019-0.6289 0.9473-0.6289 1.516v10.71c0 0.5684 0.227 1.114 0.6289 1.516 0.4019 0.4018 0.9473 0.627 1.516 0.627h6.428v-8.572h-4.285v2.145h2.143v4.285h-4.285v-10.71h6.428v-2.143h-6.428zm-10.71 2.143h4.285v5.357h-4.285v-5.357z" fill="#808080"/>
</svg>
