<svg width="51.13" height="53.26" fill="none" version="1.1" viewBox="0 0 51.13 53.26" xmlns="http://www.w3.org/2000/svg">
	<path d="m34.52 2.396c2.689-1.371 5.354-2.396 7.442-2.396 1.243 0 2.427 0.718 3.46 1.822 1.045 1.116 2.021 2.712 2.858 4.684 1.677 3.949 2.848 9.522 2.848 16.13 0 6.58-0.848 11.62-2.259 15.31-1.41 3.688-3.406 6.079-5.731 7.241-1.296 0.6482-2.858 0.5448-4.393 0.1249-1.552-0.4244-3.204-1.207-4.778-2.088-1.579-0.8831-3.112-1.883-4.423-2.76-0.2858-0.191-0.5594-0.375-0.8198-0.5501-0.9532-0.6409-1.73-1.164-2.285-1.48-2.702-1.544-5.402-2.36-9.269-3.518-1.96 5.578-0.9298 10.23-0.1988 11.81l0.0045 0.0097c0.8777 1.975 1.052 3.538 0.7179 4.672-0.3441 1.17-1.238 1.854-2.245 1.854-0.2504 0-0.5653-0.0576-0.8799-0.1318-0.3312-0.0782-0.7207-0.1893-1.144-0.3247-0.8468-0.271-1.856-0.648-2.85-1.078-0.9919-0.4289-1.987-0.9184-2.798-1.417-0.4051-0.2493-0.7778-0.5093-1.085-0.7741-0.2981-0.2568-0.581-0.5572-0.7509-0.8969-0.3229-0.6457-0.285-1.402-0.1591-2.094 0.1289-0.7087 0.3825-1.507 0.6422-2.312l0.03566-0.1105c0.5251-1.627 1.085-3.363 1.085-5.077 0-2.57-1.092-4.927-1.772-6.009-0.6799-0.0726-1.829-0.3102-3.227-0.8693l-0.2743-0.1098-0.1258-0.2673c-3.471-7.376-2.202-14.8 0.04261-18.39l0.2203-0.3525h0.4157c10.83 0 18.67-2.501 23.57-5.766 2.533-1.689 5.402-3.496 8.124-4.884zm-26.91 30.87c2.485 0.3618 5.921 0.9399 8.088 1.316-2.017 5.881-0.9731 10.86-0.092 12.77 0.8036 1.81 0.8399 2.981 0.6476 3.635-0.1818 0.6184-0.5505 0.7767-0.8059 0.7767-0.0653 0-0.2369-0.0213-0.5355-0.0918-0.2819-0.0665-0.6322-0.1657-1.031-0.2934-0.797-0.255-1.76-0.6144-2.712-1.026-0.9544-0.4127-1.879-0.8701-2.607-1.318-0.3642-0.2241-0.6654-0.4376-0.8923-0.633-0.2361-0.2035-0.3478-0.3503-0.3883-0.4313-0.09797-0.196-0.1359-0.5447-0.02498-1.155 0.1079-0.5932 0.3276-1.294 0.594-2.12 0.01987-0.0615 0.03996-0.1237 0.06024-0.1865 0.5078-1.571 1.133-3.506 1.133-5.462 0-2.273-0.7331-4.367-1.433-5.782zm27.59-29.53c-2.644 1.348-5.456 3.117-7.973 4.795-5.136 3.424-13.14 5.951-23.97 6.016-1.815 3.239-2.867 9.744 0.1256 16.34 1.476 0.5565 2.528 0.681 2.813 0.681h0.0467l0.04633 0.0058c2.715 0.3394 8.176 1.269 10.56 1.689l0.0432 0.0077 0.042 0.0126c0.214 0.0642 0.425 0.1273 0.6332 0.1897 3.861 1.156 6.743 2.019 9.623 3.665 0.6069 0.3469 1.449 0.9133 2.412 1.56 0.2533 0.1703 0.5149 0.3463 0.7827 0.5253 1.305 0.8723 2.797 1.845 4.322 2.698 1.005 0.5622 2.01 1.064 2.974 1.45-0.1062-0.0998-0.2119-0.204-0.3169-0.3126-1.878-1.942-3.535-5.272-4.383-10.62-0.3812-2.407-0.6002-5.23-0.6002-8.534 0-4.008 0.2946-7.389 0.7896-10.23 0.8636-4.953 2.341-8.281 3.947-10.42 0.1723-0.229 0.3464-0.4449 0.5219-0.6478-0.7735 0.3199-1.588 0.7007-2.432 1.131zm6.796-2.232c-0.874 0.0977-2.272 0.7702-3.687 2.651-1.323 1.76-2.631 4.545-3.48 8.766 0.9878 0.01 2.112 0.3893 3.078 1.417 1.342 1.429 2.278 4.007 2.278 8.299 0 5.096-0.9525 7.849-2.365 9.262-1.045 1.045-2.242 1.263-3.202 1.249 0.8532 4.591 2.325 7.323 3.816 8.865 1.531 1.583 3.089 1.927 4.134 1.784 1.846-0.9631 3.598-2.979 4.899-6.384 1.325-3.464 2.16-8.311 2.16-14.78 0-6.441-1.144-11.81-2.728-15.54-0.7933-1.868-1.685-3.297-2.573-4.245-0.8834-0.9435-1.686-1.333-2.33-1.347zm-7.626 30.13c0.7847 0.0562 1.645-0.0529 2.39-0.7974 0.9713-0.9716 1.926-3.198 1.926-8.202 0-4.124-0.9079-6.246-1.872-7.272-0.7553-0.8041-1.602-0.9971-2.258-0.9335-0.4273 2.639-0.6828 5.769-0.6828 9.468 0 2.98 0.1819 5.542 0.4969 7.737z" clip-rule="evenodd" fill="#808080" fill-rule="evenodd"/>
</svg>
