<svg width="30" height="15" version="1.1" viewBox="0 0 30 15" xmlns="http://www.w3.org/2000/svg">
	<path d="m0 0v15h2.143v-5.357h4.285c0.5683 0 1.114-0.2251 1.516-0.627 0.4019-0.4019 0.6289-0.9473 0.6289-1.516v-5.357c0-0.5683-0.227-1.114-0.6289-1.516-0.4019-0.4019-0.9473-0.627-1.516-0.627h-6.428zm10.71 0v15h4.285c1.137 0 2.227-0.4521 3.031-1.256 0.8037-0.8037 1.254-1.893 1.254-3.029v-6.43c0-1.137-0.4502-2.226-1.254-3.029-0.8038-0.8037-1.895-1.256-3.031-1.256h-4.285zm10.71 0v15h2.145v-6.428h5.355v-2.145h-5.355v-4.285h6.428v-2.143h-8.572zm-19.29 2.143h4.285v5.357h-4.285v-5.357zm10.71 0h2.143c0.5683 0 1.114 0.2251 1.516 0.627 0.4019 0.4019 0.627 0.9473 0.627 1.516v6.43c0 0.5683-0.2251 1.114-0.627 1.516-0.4018 0.4019-0.9473 0.627-1.516 0.627h-2.143v-10.71z" fill="#808080"/>
</svg>
