<svg width="12" height="13" version="1.1" viewBox="0 0 12 13" xmlns="http://www.w3.org/2000/svg">
	<path d="m5.299 0v1.91c-0.1703 0.01885-0.3403 0.04042-0.5078 0.07227-0.3854 0.07345-0.7654 0.1819-1.127 0.3242-0.3566 0.1398-0.7 0.3128-1.02 0.5137-0.3181 0.1989-0.6156 0.4262-0.8867 0.6777-0.2719 0.2522-0.518 0.5304-0.7324 0.8242-0.2165 0.297-0.4033 0.6145-0.5547 0.9453-0.1535 0.3367-0.2711 0.6881-0.3496 1.045-0.08128 0.366-0.1211 0.7447-0.1211 1.123s0.04051 0.7551 0.1211 1.121c0.07918 0.3582 0.1969 0.7082 0.3496 1.043 0.1506 0.3308 0.3382 0.6502 0.5547 0.9473 0.2137 0.2925 0.4599 0.5694 0.7324 0.8242 0.2726 0.2522 0.5707 0.48 0.8867 0.6777 0.3216 0.2021 0.6643 0.3753 1.02 0.5137 0.3616 0.1417 0.7402 0.2508 1.127 0.3242 0.3952 0.0741 0.8019 0.1133 1.209 0.1133s0.8143-0.03858 1.211-0.1133c0.3861-0.0741 0.7643-0.1831 1.123-0.3242 0.3552-0.1384 0.6999-0.3116 1.021-0.5137 0.3174-0.1989 0.6161-0.4268 0.8887-0.6797 0.2718-0.2528 0.518-0.5285 0.7324-0.8223 0.2186-0.3003 0.4023-0.6203 0.5508-0.9473 0.1542-0.338 0.2738-0.6894 0.3516-1.045 0.0806-0.366 0.1211-0.7434 0.1211-1.121 0-0.377-0.04049-0.7545-0.1211-1.121-0.0785-0.3549-0.1968-0.7069-0.3496-1.045-0.1499-0.3282-0.3355-0.6457-0.5527-0.9453l-1.162 0.7266c0.1668 0.2288 0.3077 0.4724 0.4219 0.7246 0.1177 0.2587 0.2093 0.5297 0.2695 0.8008 0.0617 0.2814 0.0918 0.5695 0.0918 0.8594 0 0.2899-0.0301 0.5812-0.0918 0.8613-0.0602 0.2717-0.1504 0.5408-0.2695 0.8008-0.1135 0.2509-0.2551 0.4945-0.4219 0.7227-0.164 0.2255-0.3537 0.4366-0.5625 0.6309-0.2081 0.1931-0.4371 0.3681-0.6816 0.5215-0.2466 0.1547-0.5094 0.2867-0.7812 0.3926-0.2768 0.1086-0.567 0.1934-0.8613 0.25-0.6054 0.1137-1.251 0.1137-1.854 0-0.2957-0.0566-0.5878-0.1408-0.8652-0.25-0.2712-0.106-0.5327-0.2379-0.7793-0.3926-0.2431-0.1514-0.4709-0.3265-0.6797-0.5195-0.2095-0.195-0.3985-0.4086-0.5625-0.6328-0.1661-0.2282-0.3082-0.4718-0.4238-0.7246-0.117-0.2574-0.2066-0.5252-0.2676-0.7988-0.06166-0.2802-0.09375-0.5708-0.09375-0.8613 0-0.2906 0.03139-0.5786 0.09375-0.8594 0.06026-0.273 0.1506-0.5434 0.2676-0.8008 0.1156-0.2535 0.2585-0.4958 0.4238-0.7227 0.164-0.2256 0.3517-0.4391 0.5605-0.6328 0.2074-0.1931 0.4371-0.3687 0.6816-0.5215 0.2452-0.1534 0.5087-0.2853 0.7812-0.3926 0.2768-0.1085 0.567-0.1921 0.8613-0.248 0.07497-0.0143 0.1509-0.02215 0.2266-0.0332v1.977l3.504-2.6z"/>
</svg>
