<svg width="52" height="55.73" fill="none" version="1.1" viewBox="0 0 52 55.73" xmlns="http://www.w3.org/2000/svg">
	<path d="m22.96 0.0134c-1.486 0.06583-2.889 0.3745-4.107 0.9316-2.229 1.021-3.714 2.692-4.457 5.014-2.507 1.95-2.414 6.129-1.764 8.543-0.3715 1.393 0.279 3.715 1.672 5.943 0.0929 0.9286 0.556 4.363 2.32 6.406-0.1857 4.457-3.436 5.758-7.15 7.244-4.457 1.671-9.471 3.715-9.471 11.42v0.9277h26.93v-1.857h-25.07c0.3714-5.664 4.178-7.243 8.264-8.914 4.086-1.672 8.264-3.342 8.264-9.285v-0.3711l-0.2773-0.2793c-1.857-1.857-2.137-5.758-2.137-5.758v-0.4629c-1.578-2.321-1.763-4.18-1.484-4.645l0.1855-0.3711-0.09375-0.3711c-0.65-2.043-0.743-5.571 1.207-6.871l0.2793-0.1855 0.0918-0.3711c0.5572-1.857 1.765-3.25 3.529-4.086 2.6-1.207 6.221-1.022 9.471 0.3711-0.4642 2.229 0.1859 3.9 0.8359 5.479 0.7428 1.764 1.301 3.343 0.2793 5.479l-0.1855 0.3711 0.1855 0.3711c0.1857 0.4642-6.28e-4 2.323-1.486 4.645l-0.2773 0.3711v0.2773c-0.0928 1.114-0.5581 4.272-2.137 5.758l-0.2773 0.2793v0.3711c0 4.643 2.691 6.685 5.105 7.893l0.8359-1.672c-2.043-1.022-3.9-2.507-4.086-5.85 1.764-2.043 2.229-5.48 2.322-6.408 1.393-2.136 2.043-4.364 1.672-5.85 1.207-2.693 0.3718-4.828-0.3711-6.686-0.65-1.671-1.209-3.157-0.5586-5.107l0.2793-0.7422-0.6504-0.2793c-2.496-1.219-5.208-1.784-7.686-1.674zm17.9 33.43c-6.128 0-11.14 5.014-11.14 11.14s5.014 11.14 11.14 11.14c6.129 0 11.14-5.014 11.14-11.14s-5.014-11.14-11.14-11.14zm0 1.857c5.107 0 9.285 4.178 9.285 9.285s-4.178 9.285-9.285 9.285c-5.107 0-9.285-4.178-9.285-9.285s4.178-9.285 9.285-9.285zm0 2.414-3.9 3.9c-0.3714 0.3714-0.3714 0.9273 0 1.299 0.3715 0.3714 0.9294 0.3714 1.301 0l1.67-1.67v9.842h1.857v-9.842l1.672 1.67c0.1858 0.1857 0.4647 0.2793 0.6504 0.2793 0.1858 0 0.4647-0.0936 0.6504-0.2793 0.3715-0.3715 0.3715-0.9274 0-1.299z" fill="#808080"/>
</svg>
