<svg width="30" height="15" version="1.1" viewBox="0 0 30 15" xmlns="http://www.w3.org/2000/svg">
	<path d="m0 0 2.949 7.5-2.949 7.5h2.143l2.143-6.428 2.143 6.428h2.145l-2.953-7.5 2.953-7.5h-2.145l-2.143 6.428-2.143-6.428h-2.143zm10.71 0v15h8.57v-2.143h-6.428v-12.86h-2.143zm12.86 0c-0.5681 5.673e-4 -1.114 0.2272-1.516 0.6289-0.4017 0.4017-0.6284 0.9455-0.6289 1.514v4.285c5e-4 0.5682 0.2272 1.114 0.6289 1.516 0.4018 0.4018 0.9475 0.6283 1.516 0.6289h4.285v4.285h-6.43v2.143h6.43c0.5682-6e-4 1.112-0.2271 1.514-0.6289 0.4018-0.4017 0.6283-0.9455 0.6289-1.514v-4.285c-6e-4 -0.5682-0.2271-1.114-0.6289-1.516-0.4017-0.4017-0.9455-0.6283-1.514-0.6289h-4.285v-4.285h6.428v-2.143h-6.428z" fill="#808080"/>
</svg>
