<svg width="117" height="31" viewBox="0 0 117 31" fill="none" xmlns="http://www.w3.org/2000/svg">
<path fill-rule="evenodd" clip-rule="evenodd" d="M33.9589 7.13907H34.5338C35.5254 5.3363 36.1138 3.33922 36.2583 1.28613H39.8032V7.13907H40.7613V10.0176H39.6116V8.09857H35.1086V10.0176H33.9589V7.13907ZM37.2164 2.24563C37.2164 2.91728 36.929 3.78083 36.6416 4.64438C36.3541 5.60387 36.0667 6.46742 35.6835 7.13907H38.7493V2.24563H37.3122H37.2164ZM46.2223 5.50792C46.2663 6.19589 46.0623 6.87683 45.6475 7.42692C45.1684 7.90667 44.5936 8.19452 43.7313 8.19452C43.2982 8.2087 42.8689 8.10948 42.4858 7.90667C42.1093 7.68005 41.809 7.34592 41.6235 6.94717L41.3361 5.50792C41.3361 4.64438 41.6235 3.97273 42.0068 3.58893C42.4858 3.01323 42.9648 2.82133 43.8271 2.82133C44.5936 2.82133 45.1684 3.10918 45.6475 3.58893C46.0307 4.06868 46.2223 4.64438 46.2223 5.50792ZM42.4858 5.50792C42.4858 6.65932 42.9648 7.33097 43.8271 7.33097C44.6894 7.33097 45.1684 6.65932 45.1684 5.41197C45.1684 4.35653 44.6894 3.68488 43.8271 3.68488C43.3481 3.68488 43.0607 3.87678 42.869 4.16463C42.5816 4.45248 42.4858 4.93223 42.4858 5.50792ZM49.5756 8.19452C48.8091 8.19452 48.2343 8.00262 47.851 7.52287C47.372 7.04312 47.1804 6.37147 47.1804 5.60387C47.1804 4.64438 47.4678 3.97273 47.851 3.49298C48.2343 3.01323 48.8091 2.82133 49.7672 2.82133L51.2043 3.10918L50.821 4.06868L49.6714 3.78083C48.7133 3.78083 48.3301 4.35653 48.3301 5.50792C48.3301 6.08362 48.4259 6.46742 48.7133 6.85122C48.9049 7.13907 49.1923 7.23502 49.6714 7.23502C50.1504 7.23502 50.6294 7.23502 51.0127 6.94717V7.90667L50.4378 8.09857C50.1549 8.16314 49.8657 8.19533 49.5756 8.19452ZM56.1863 2.91728V3.78083H54.4617V8.09857H53.4079V3.78083H51.6833V2.91728H56.1863ZM56.3779 2.91728H57.5276L58.5814 5.79577L58.9647 7.04312C58.9647 6.85122 58.9647 6.65932 59.1563 6.37147L60.306 2.91728H61.4557L59.2521 8.77022C58.8689 9.82567 58.294 10.4014 57.336 10.4014H56.5695V9.44186H57.1443C57.6234 9.44186 58.1024 9.24997 58.294 8.57832L58.4856 8.09857L56.3779 2.91728ZM66.8209 2.91728V8.09857H65.5754V3.78083H63.276V8.09857H62.2221V2.91728H66.7251H66.8209ZM69.5035 2.91728V5.02818H71.8987V2.91728H73.0484V8.09857H71.8987V5.89172H69.5035V8.09857H68.3538V2.91728H69.5035ZM79.18 5.50792C79.197 6.20799 78.9586 6.89025 78.5094 7.42692C78.1262 7.90667 77.5513 8.19452 76.689 8.19452C76.2559 8.2087 75.8266 8.10948 75.4436 7.90667C75.0671 7.68005 74.7668 7.34592 74.5813 6.94717L74.2939 5.50792C74.2939 4.64438 74.4855 3.97273 74.9645 3.58893C75.3477 3.01323 75.9226 2.82133 76.7848 2.82133C77.4555 2.82133 78.1262 3.10918 78.5094 3.58893C78.9884 4.06868 79.18 4.64438 79.18 5.50792ZM75.3477 5.50792C75.3477 6.65932 75.8268 7.33097 76.7848 7.33097C77.6471 7.33097 78.0303 6.65932 78.0303 5.41197C78.0303 4.35653 77.6471 3.68488 76.689 3.68488C76.3058 3.68488 75.9226 3.87678 75.731 4.16463C75.5394 4.45248 75.4436 4.93223 75.4436 5.50792H75.3477ZM87.4195 4.26058C87.4195 4.83628 87.0362 5.22008 86.3656 5.31602L87.3237 5.79577C87.5153 5.98767 87.6111 6.27552 87.6111 6.56337C87.6111 7.04312 87.4195 7.52287 87.0362 7.71477C86.5434 8.00163 85.9764 8.13523 85.4075 8.09857H82.9165V2.91728H85.4075C86.7488 2.91728 87.4195 3.39703 87.4195 4.26058ZM86.4614 6.46742C86.4614 6.27552 86.3656 6.08362 86.174 5.98767C85.8765 5.84187 85.5465 5.77575 85.2159 5.79577H84.0662V7.33097H85.3117C86.0782 7.33097 86.4614 7.04312 86.4614 6.46742ZM86.3656 4.35653C86.3656 4.16463 86.2698 3.97273 86.0782 3.87678L85.4075 3.78083H84.0662V5.02818H85.2159C85.5991 5.02818 85.8866 5.02818 86.0782 4.83628C86.2698 4.83628 86.3656 4.54843 86.3656 4.35653ZM43.5397 26.8088L43.3481 26.2331L42.869 24.8898L42.39 23.5465L42.1984 22.9708H36.8332L35.4919 26.8088H33.7673L38.6535 13.3758H40.2822L45.2642 26.8088H43.5397ZM39.5158 15.3908L39.2284 15.9665L38.7493 17.5016C38.3389 18.6228 37.9237 19.7422 37.5038 20.8599L37.3122 21.5315H41.7193L39.5158 15.3908ZM51.6833 16.6381C52.2703 16.6268 52.852 16.7507 53.3836 17.0002C53.9151 17.2498 54.3823 17.6183 54.7491 18.0773C55.5156 19.0368 55.8988 20.1882 55.8988 21.7234C55.8988 23.2586 55.5156 24.6019 54.7491 25.5614C54.3728 26.003 53.9014 26.3532 53.3704 26.5859C52.8393 26.8186 52.2625 26.9276 51.6833 26.9047C51.0137 26.9152 50.3531 26.7498 49.7672 26.425C49.2484 26.1278 48.8184 25.6971 48.5217 25.1776V30.167H46.7971V16.734H48.3301V18.3652C48.7133 17.8854 49.0965 17.4057 49.7672 17.1178C50.3562 16.801 51.0147 16.6361 51.6833 16.6381ZM51.3959 25.4655C52.2582 25.4655 52.9288 25.0817 53.5037 24.506C53.9827 23.7384 54.2701 22.8748 54.2701 21.7234C54.2701 20.668 53.9827 19.8044 53.5037 19.1328C52.9288 18.4611 52.2582 18.1733 51.3001 18.1733C50.5336 18.1733 49.7672 18.4611 49.2881 19.1328C48.7133 19.8044 48.4259 20.668 48.4259 21.7234C48.4259 22.7789 48.7133 23.7384 49.2881 24.41C49.7672 25.0817 50.5336 25.3695 51.3001 25.3695L51.3959 25.4655ZM62.7012 16.6381C63.2881 16.6268 63.8698 16.7507 64.4014 17.0002C64.933 17.2498 65.4002 17.6183 65.767 18.0773C66.6293 19.0368 67.0125 20.1882 67.0125 21.7234C67.0125 23.2586 66.6293 24.6019 65.767 25.5614C65.3907 26.003 64.9193 26.3532 64.3882 26.5859C63.8572 26.8186 63.2804 26.9276 62.7012 26.9047C62.0316 26.9152 61.3709 26.7498 60.785 26.425C60.2663 26.1278 59.8363 25.6971 59.5395 25.1776V30.167H57.9108V16.734H59.4437V18.3652C59.7311 17.8854 60.2102 17.4057 60.785 17.1178C61.374 16.801 62.0326 16.6361 62.7012 16.6381ZM62.4137 25.4655C63.276 25.4655 63.9467 25.0817 64.5215 24.506C65.0964 23.7384 65.288 22.8748 65.288 21.7234C65.288 20.668 65.0964 19.8044 64.5215 19.1328C63.9467 18.4611 63.276 18.1733 62.4137 18.1733C61.4557 18.1733 60.785 18.4611 60.306 19.1328C59.7311 19.8044 59.4437 20.668 59.4437 21.7234C59.4437 22.7789 59.7311 23.7384 60.306 24.41C60.785 25.0817 61.5515 25.3695 62.4137 25.3695V25.4655ZM73.24 23.0667C73.2687 23.6298 73.4209 24.1797 73.6859 24.6772C73.9508 25.1747 74.3219 25.6077 74.7729 25.9452C75.731 26.6169 76.7848 27.0007 78.222 27.0007C79.5198 27.0712 80.8031 26.6991 81.8626 25.9452C82.8207 25.1776 83.2998 24.2181 83.2998 23.0667C83.2998 22.1072 82.9165 21.2437 82.3417 20.668C81.477 19.9825 80.4569 19.5211 79.3717 19.3247L77.9345 18.9409C76.9765 18.749 76.4016 18.4611 76.0184 18.0773C75.8148 17.9387 75.6475 17.7529 75.5308 17.5358C75.4141 17.3187 75.3513 17.0766 75.3477 16.83C75.3477 16.1584 75.6352 15.6786 76.21 15.2948C76.7849 14.8151 77.4555 14.6232 78.3178 14.6232C79.2758 14.6232 79.9465 14.8151 80.4255 15.2948C81.0004 15.6786 81.3836 16.2543 81.3836 16.926H83.0123C83.0123 15.8705 82.5333 14.911 81.671 14.2394C80.8088 13.4718 79.7549 13.088 78.4136 13.088C76.9765 13.088 75.8268 13.4718 74.9645 14.1434C74.0064 14.911 73.6232 15.7746 73.6232 16.926C73.6232 18.653 74.8687 19.8044 77.1681 20.4761L78.8926 20.9558C79.6208 21.0843 80.3095 21.3799 80.9046 21.8194C81.2878 22.2032 81.4794 22.6829 81.4794 23.2586C81.4842 23.5812 81.4076 23.8997 81.2569 24.1848C81.1062 24.4699 80.8862 24.7124 80.6171 24.8898C80.0423 25.2736 79.2758 25.4655 78.4136 25.4655C77.4555 25.4655 76.689 25.2736 76.0184 24.7938C75.3477 24.41 75.0603 23.8343 74.9645 23.0667H73.24ZM85.6949 14.4313V16.734H84.3536V18.0773H85.7907V24.2181C85.7907 25.1776 85.9824 25.8493 86.3656 26.2331C86.7488 26.6169 87.3237 26.9047 88.2817 26.9047C88.6028 26.8926 88.9227 26.8606 89.2398 26.8088V25.3695C89.1759 25.37 89.1121 25.37 89.0482 25.3695H88.665C88.1859 25.3695 87.8985 25.3695 87.7069 25.1776C87.5153 24.8898 87.4195 24.6019 87.4195 24.1222V18.0773H89.3356V16.734H87.4195V14.5272H85.7907L85.6949 14.4313ZM95.4673 26.9047C94.126 26.9047 92.9763 26.425 92.114 25.4655C91.2518 24.506 90.8685 23.3546 90.8685 21.7234C90.8685 20.1882 91.2518 18.9409 92.114 18.0773C92.9763 17.1178 94.0302 16.6381 95.4673 16.6381C96.9044 16.6381 98.0541 17.1178 98.8205 18.0773C99.6828 19.0368 100.066 20.1882 100.066 21.7234C100.066 23.3546 99.6828 24.6019 98.8205 25.5614C98.0541 26.425 96.9044 26.9047 95.4673 26.9047ZM95.4673 25.4655C96.4254 25.4655 97.1918 25.0817 97.6709 24.506C98.2457 23.8343 98.4373 22.8748 98.4373 21.7234C98.4373 20.572 98.2457 19.7085 97.6709 19.0368C97.1918 18.4611 96.4254 18.0773 95.4673 18.0773C94.5092 18.0773 93.8386 18.4611 93.2637 19.0368C92.7847 19.7085 92.4973 20.572 92.4973 21.7234C92.4973 22.8748 92.7847 23.8343 93.2637 24.506C93.8386 25.0817 94.605 25.4655 95.4673 25.4655ZM102.078 26.8088H103.611V20.572C103.611 19.9004 103.898 19.3247 104.282 18.8449C104.665 18.4611 105.24 18.1733 105.814 18.1733C106.136 18.173 106.457 18.2051 106.773 18.2692V16.734C106.518 16.709 106.261 16.709 106.006 16.734C105.431 16.734 104.952 16.734 104.473 17.1178C104.09 17.4057 103.707 17.8854 103.515 18.3652V16.734H102.078V26.8088ZM112.329 18.0773C111.467 18.0773 110.892 18.3652 110.413 18.8449C109.838 19.4206 109.455 20.0923 109.455 20.9558H115.012C115.012 19.9963 114.725 19.4206 114.246 18.8449C113.767 18.3652 113.096 18.0773 112.329 18.0773ZM114.916 23.8343H116.545C116.449 24.7938 115.97 25.4655 115.204 26.0412C114.437 26.6169 113.479 26.9047 112.329 26.9047C110.988 26.9047 109.838 26.425 109.072 25.4655C108.21 24.506 107.826 23.3546 107.826 21.8194C107.826 20.2842 108.21 18.9409 109.072 17.9814C109.838 17.1178 110.988 16.6381 112.329 16.6381C113.671 16.6381 114.725 17.1178 115.491 17.9814C116.257 18.8449 116.641 20.0923 116.641 21.6275V22.2032H109.647V22.2991C109.647 23.2586 109.934 24.0262 110.509 24.6019C110.783 24.8821 111.111 25.1032 111.474 25.2517C111.836 25.4002 112.225 25.4729 112.617 25.4655C113.287 25.4655 113.767 25.2736 114.246 25.0817C114.474 24.964 114.677 24.8013 114.841 24.6035C115.006 24.4057 115.129 24.1768 115.204 23.9303L114.916 23.8343Z" fill="#676767"/>
<path d="M20.5456 24.602C19.3959 26.3291 18.2462 27.9602 16.3301 27.9602C14.4139 27.9602 13.9349 27.0007 11.8271 27.0007C9.71938 27.0007 8.95292 27.9602 7.22839 27.9602C5.40805 28.1521 4.06674 26.2331 2.91705 24.506C0.521869 21.1478 -1.29847 14.911 1.19252 10.6892C1.76389 9.65903 2.59586 8.79752 3.60487 8.19121C4.61389 7.5849 5.76443 7.25514 6.94096 7.23504C8.6655 7.23504 10.2942 8.38644 11.4439 8.38644C12.4978 8.38644 14.6056 6.94719 16.7133 7.13909C17.6714 7.13909 20.1624 7.52289 21.7911 9.92164C21.5995 9.92164 18.7253 11.6487 18.8211 15.1029C18.8211 19.3247 22.4618 20.668 22.4618 20.668C22.4618 20.764 21.8869 22.587 20.5456 24.602ZM12.6894 2.5335C13.6475 1.3821 15.372 0.614505 16.7133 0.518555C16.9049 2.05375 16.2343 3.6849 15.2762 4.8363C14.7954 5.44157 14.183 5.92902 13.4857 6.26155C12.7884 6.59409 12.0246 6.76296 11.2523 6.75529C11.1994 5.99123 11.2992 5.22428 11.546 4.49935C11.7928 3.77442 12.1815 3.10609 12.6894 2.5335Z" fill="#676767"/>
</svg>
