<svg width="114" height="30" viewBox="0 0 114 30" fill="none" xmlns="http://www.w3.org/2000/svg">
<path fill-rule="evenodd" clip-rule="evenodd" d="M33.0397 6.31835H33.5903C34.5402 4.56068 35.1039 2.61355 35.2423 0.611816H38.638V6.31835H39.5558V9.12485H38.4545V7.25385H34.141V9.12485H33.0397V6.31835ZM36.1601 1.54731C36.1601 2.20216 35.8847 3.04411 35.6094 3.88606C35.3341 4.82156 35.0587 5.6635 34.6916 6.31835H37.6285V1.54731H36.2518H36.1601ZM44.787 4.72801C44.8292 5.39876 44.6338 6.06267 44.2364 6.599C43.7775 7.06675 43.2268 7.3474 42.4008 7.3474C41.986 7.36122 41.5747 7.26449 41.2077 7.06675C40.8471 6.8458 40.5595 6.52003 40.3818 6.13125L40.1064 4.72801C40.1064 3.88606 40.3818 3.23121 40.7489 2.85701C41.2077 2.29571 41.6666 2.10861 42.4926 2.10861C43.2268 2.10861 43.7775 2.38926 44.2364 2.85701C44.6035 3.32476 44.787 3.88606 44.787 4.72801ZM41.2077 4.72801C41.2077 5.8506 41.6666 6.50545 42.4926 6.50545C43.3186 6.50545 43.7775 5.8506 43.7775 4.63446C43.7775 3.60541 43.3186 2.95056 42.4926 2.95056C42.0337 2.95056 41.7584 3.13766 41.5749 3.41831C41.2995 3.69896 41.2077 4.16671 41.2077 4.72801ZM47.9992 7.3474C47.265 7.3474 46.7143 7.1603 46.3472 6.69255C45.8883 6.2248 45.7048 5.56995 45.7048 4.82156C45.7048 3.88606 45.9801 3.23121 46.3472 2.76346C46.7143 2.29571 47.265 2.10861 48.1827 2.10861L49.5594 2.38926L49.1923 3.32476L48.091 3.04411C47.1732 3.04411 46.8061 3.60541 46.8061 4.72801C46.8061 5.28931 46.8979 5.6635 47.1732 6.0377C47.3567 6.31835 47.6321 6.4119 48.091 6.4119C48.5498 6.4119 49.0087 6.4119 49.3758 6.13125V7.06675L48.8252 7.25385C48.5542 7.3168 48.2771 7.34819 47.9992 7.3474ZM54.3317 2.20216V3.04411H52.6798V7.25385H51.6702V3.04411H50.0183V2.20216H54.3317ZM54.5153 2.20216H55.6166L56.6261 5.00866L56.9932 6.2248C56.9932 6.0377 56.9932 5.8506 57.1768 5.56995L58.2781 2.20216H59.3794L57.2686 7.9087C56.9015 8.93775 56.3508 9.49904 55.433 9.49904H54.6988V8.56355H55.2495C55.7084 8.56355 56.1673 8.37645 56.3508 7.7216L56.5344 7.25385L54.5153 2.20216ZM64.5189 2.20216V7.25385H63.3258V3.04411H61.1232V7.25385H60.1136V2.20216H64.4271H64.5189ZM67.0886 2.20216V4.26026H69.383V2.20216H70.4843V7.25385H69.383V5.10221H67.0886V7.25385H65.9873V2.20216H67.0886ZM76.358 4.72801C76.3742 5.41056 76.1458 6.07575 75.7156 6.599C75.3485 7.06675 74.7978 7.3474 73.9718 7.3474C73.5569 7.36122 73.1457 7.26449 72.7787 7.06675C72.4181 6.8458 72.1304 6.52003 71.9527 6.13125L71.6774 4.72801C71.6774 3.88606 71.861 3.23121 72.3198 2.85701C72.687 2.29571 73.2376 2.10861 74.0636 2.10861C74.706 2.10861 75.3485 2.38926 75.7156 2.85701C76.1744 3.32476 76.358 3.88606 76.358 4.72801ZM72.6869 4.72801C72.6869 5.8506 73.1458 6.50545 74.0636 6.50545C74.8896 6.50545 75.2567 5.8506 75.2567 4.63446C75.2567 3.60541 74.8896 2.95056 73.9718 2.95056C73.6047 2.95056 73.2376 3.13766 73.0541 3.41831C72.8705 3.69896 72.7787 4.16671 72.7787 4.72801H72.6869ZM84.2507 3.51186C84.2507 4.07316 83.8836 4.44736 83.2412 4.54091L84.159 5.00866C84.3425 5.19576 84.4343 5.4764 84.4343 5.75705C84.4343 6.2248 84.2507 6.69255 83.8836 6.87965C83.4115 7.15934 82.8684 7.28959 82.3234 7.25385H79.9373V2.20216H82.3234C83.6083 2.20216 84.2507 2.66991 84.2507 3.51186ZM83.333 5.6635C83.333 5.4764 83.2412 5.28931 83.0576 5.19576C82.7727 5.0536 82.4565 4.98914 82.1399 5.00866H81.0386V6.50545H82.2317C82.9659 6.50545 83.333 6.2248 83.333 5.6635ZM83.2412 3.60541C83.2412 3.41831 83.1494 3.23121 82.9659 3.13766L82.3234 3.04411H81.0386V4.26026H82.1399C82.507 4.26026 82.7823 4.26026 82.9659 4.07316C83.1494 4.07316 83.2412 3.79251 83.2412 3.60541ZM93.4284 21.9412C93.4284 23.2509 93.153 24.2799 92.5106 25.1219C92.245 25.4833 91.8977 25.7742 91.4983 25.9696C91.0988 26.165 90.659 26.2593 90.2162 26.2445C89.1149 26.2445 88.1971 25.8703 87.6465 25.0283V29.3316H86.7287V17.5443H87.6465V18.7605C88.1971 17.825 89.1149 17.4508 90.2162 17.4508C91.2257 17.4508 92.0517 17.825 92.6024 18.5734C93.153 19.3218 93.4284 20.4444 93.4284 21.7541V21.9412ZM92.5106 21.7541C92.5106 20.6315 92.327 19.8831 91.8682 19.2282C91.4093 18.5734 90.7668 18.2927 90.0326 18.2927C89.482 18.2927 88.9313 18.3863 88.5642 18.6669C88.1971 18.9476 87.83 19.3218 87.6465 19.8831V23.9993C87.8496 24.465 88.1862 24.8573 88.6121 25.1244C89.038 25.3916 89.5332 25.5211 90.0326 25.4961C90.7668 25.4961 91.4093 25.1219 91.8682 24.5606C92.3667 23.7173 92.5916 22.7352 92.5106 21.7541ZM96.457 26.0574H95.5392V13.9894H96.457V26.1509V26.0574ZM104.258 26.0574L104.074 24.9348C103.799 25.309 103.34 25.6832 102.881 25.8703C102.366 26.1212 101.801 26.2492 101.229 26.2445C100.56 26.261 99.9071 26.0282 99.3938 25.5896C98.8431 25.1219 98.5678 24.5606 98.5678 23.8122C98.5678 22.9702 98.9349 22.3154 99.5773 21.9412C100.22 21.3799 101.229 21.0992 102.331 21.0992H104.166V20.1637C104.164 19.8966 104.105 19.6332 103.994 19.3912C103.883 19.1491 103.723 18.9341 103.524 18.7605C103.157 18.3863 102.606 18.1992 101.964 18.1992C101.321 18.1992 100.77 18.3863 100.312 18.7605C99.9445 19.0411 99.6691 19.4153 99.6691 19.9766H98.7514C98.7514 19.2282 99.1185 18.6669 99.6691 18.1056C100.312 17.6379 101.046 17.4508 101.964 17.4508C102.881 17.4508 103.615 17.6379 104.166 18.1056C104.717 18.5734 104.992 19.2282 105.084 20.1637V24.0928C105.084 24.8412 105.084 25.4961 105.267 25.9638H104.35L104.258 26.0574ZM101.413 25.4025C101.964 25.4025 102.514 25.309 103.065 24.9348C103.524 24.6541 103.891 24.2799 104.074 23.7186V21.8476H102.422C101.505 21.8476 100.77 22.0347 100.312 22.4089C99.7609 22.6896 99.4856 23.1573 99.4856 23.7186C99.4856 24.2799 99.6691 24.6541 100.036 24.9348C100.403 25.2154 100.862 25.4025 101.413 25.4025ZM110.132 24.7477L112.518 17.5443H113.527L109.948 27.5541L109.765 28.0219C109.306 28.9574 108.663 29.5187 107.654 29.5187L106.919 29.4251V28.6767H107.47C107.929 28.6767 108.296 28.5832 108.571 28.3025C108.847 28.1154 109.03 27.7412 109.214 27.1799L109.673 26.0574L106.552 17.6379H107.47L110.132 24.7477Z" fill="#676767"/>
<path d="M0.000337556 25.5899V2.38955C0.000337556 1.64115 0.459219 0.892754 1.10165 0.518555L14.2256 13.9897L1.10165 27.4609C0.764493 27.2856 0.482461 27.0172 0.287732 26.6864C0.0930031 26.3556 -0.00658195 25.9756 0.000337556 25.5899ZM18.3556 18.293L4.03849 26.7125L15.4187 15.2059L18.4473 18.293H18.3556ZM22.9444 12.3994C23.1749 12.5924 23.3607 12.8352 23.4882 13.1102C23.6157 13.3852 23.6819 13.6856 23.6819 13.9897C23.6819 14.2939 23.6157 14.5943 23.4882 14.8693C23.3607 15.1442 23.1749 15.387 22.9444 15.5801L19.824 17.4511L16.52 13.9897L19.824 10.6219L22.8526 12.3994H22.9444ZM3.94671 1.26695L18.3556 9.68643L15.3269 12.8671L3.94671 1.26695Z" fill="#676767"/>
<path fill-rule="evenodd" clip-rule="evenodd" d="M46.347 19.4157L46.4388 20.3512C46.4388 23.719 44.1444 25.9642 40.9322 25.9642C39.3415 25.9644 37.8146 25.3268 36.6812 24.189C35.5479 23.0513 34.8991 21.5047 34.875 19.8835C34.875 16.7028 37.5365 13.8027 40.8404 13.8027C43.5937 13.8027 44.9704 15.4866 44.9704 15.4866L43.8691 16.6092C43.8691 16.6092 42.7677 15.4866 40.9322 15.4866C38.546 15.4866 36.6187 17.3576 36.6187 19.8835C36.6062 20.4644 36.7092 21.0418 36.9216 21.5811C37.1339 22.1203 37.4512 22.6101 37.8542 23.0209C38.2573 23.4318 38.7378 23.7552 39.2668 23.9716C39.7958 24.1881 40.3623 24.2931 40.9322 24.2803C42.7677 24.2803 44.6033 23.3448 44.7868 21.0061H40.9322V19.3222H46.4388L46.347 19.4157ZM50.9358 18.106C51.4414 18.0925 51.9443 18.1856 52.4129 18.3795C52.8816 18.5734 53.3058 18.8639 53.6591 19.2328C54.0124 19.6017 54.2871 20.0411 54.466 20.5233C54.6449 21.0055 54.7241 21.5202 54.6986 22.0351C54.725 22.5582 54.6434 23.0811 54.459 23.5699C54.2746 24.0588 53.9916 24.5028 53.6282 24.8731C53.2649 25.2435 52.8294 25.532 52.3498 25.7199C51.8702 25.9079 51.3572 25.9911 50.844 25.9642C48.5496 25.9642 46.9894 24.0932 46.9894 22.0351C46.9894 19.8835 48.6414 18.106 50.844 18.106H50.9358ZM50.9358 19.6964C49.6509 19.6964 48.7332 20.6319 48.7332 22.0351C48.7332 23.4384 49.6509 24.3739 50.844 24.3739C51.9454 24.3739 53.0467 23.4384 53.0467 22.0351C53.0467 20.5383 51.9454 19.6964 50.844 19.6964H50.9358ZM59.1957 18.106C59.7088 18.0791 60.2218 18.1624 60.7014 18.3503C61.181 18.5383 61.6165 18.8267 61.9799 19.1971C62.3432 19.5675 62.6262 20.0114 62.8106 20.5003C62.995 20.9892 63.0766 21.5121 63.0503 22.0351C63.0757 22.55 62.9965 23.0647 62.8177 23.5469C62.6388 24.0292 62.3641 24.4685 62.0108 24.8374C61.6575 25.2063 61.2332 25.4969 60.7646 25.6908C60.2959 25.8847 59.793 25.9778 59.2874 25.9642C56.9013 25.9642 55.3411 24.0932 55.3411 22.0351C55.3411 19.8835 56.993 18.106 59.1957 18.106ZM59.1957 19.6964C58.0026 19.6964 57.0848 20.6319 57.0848 22.0351C57.0848 23.4384 58.0026 24.3739 59.1957 24.3739C60.3887 24.3739 61.3983 23.4384 61.3983 22.0351C61.3983 20.5383 60.3887 19.6964 59.2874 19.6964H59.1957ZM67.4555 18.106C68.3733 18.106 69.0157 18.4802 69.4746 19.0415V18.3867H71.1265V25.4029C71.1265 28.2094 69.5664 29.4256 67.4555 29.4256C66.7359 29.4318 66.0304 29.2223 65.4267 28.8231C64.8229 28.4239 64.3476 27.8527 64.0598 27.1804L65.5282 26.5255C65.7118 26.9933 66.3542 27.9288 67.4555 27.9288C68.6486 27.9288 69.4746 27.0868 69.4746 25.7771V25.0287C69.1075 25.4965 68.5568 25.9642 67.3637 25.9642C65.62 25.9642 63.6927 24.3739 63.6927 22.0351C63.6927 19.977 65.3447 18.106 67.3637 18.106H67.4555ZM67.5473 19.6964C66.5377 19.6964 65.4364 20.6319 65.4364 22.0351C65.4364 23.5319 66.446 24.3739 67.5473 24.3739C68.5568 24.3739 69.6581 23.5319 69.6581 22.0351C69.6581 20.5383 68.5568 19.6964 67.5473 19.6964ZM78.1933 18.106C79.7535 18.106 80.9466 19.1351 81.4055 20.4448L81.6808 21.0061L76.5413 23.2513C76.8167 23.8126 77.3673 24.3739 78.3769 24.3739C79.3864 24.3739 79.9371 23.9061 80.3042 23.3448L81.589 24.2803C81.0384 25.0287 80.0288 25.9642 78.3769 25.9642C77.8789 25.9648 77.3861 25.8622 76.9283 25.6626C76.4705 25.4629 76.0573 25.1704 75.7139 24.8029C75.3705 24.4354 75.1041 24.0005 74.9308 23.5246C74.7575 23.0488 74.6809 22.542 74.7058 22.0351C74.7058 19.6964 76.266 18.106 78.1933 18.106ZM78.2851 19.6028C77.1838 19.6028 76.1742 20.819 76.266 21.9416L79.8453 20.3512C79.5699 19.8835 79.1111 19.5093 78.3769 19.5093L78.2851 19.6028ZM72.2279 25.6836V14.1769H73.8798V25.6836H72.2279Z" fill="#676767"/>
</svg>
