<svg width="55.86" height="70" fill="#f2f2f2" version="1.1" viewBox="0 0 55.86 70" xmlns="http://www.w3.org/2000/svg">
	<path d="m12.23 0.0066v9.236l6.254 6.066v-15.3h-0.9727v10.48l-0.834-0.8262v-9.65h-0.834v8.686l-0.834-0.8281v-7.857h-0.9727v7.031l-0.834-0.8281v-6.203zm7.088 0v15.3l6.252-6.066v-9.236h-0.9727v6.203l-0.834 0.8281v-7.031h-0.9727v7.857l-0.6953 0.8281v-8.686h-0.9727v9.65l-0.832 0.8262v-10.48zm7.225 7.445v1.93h1.389c14.45 0 26.12 11.58 26.12 25.92s-11.67 25.92-26.12 25.92-26.12-11.58-26.12-25.92c0.139-7.996 3.751-15.03 9.309-19.85v-2.344c-6.669 4.963-11.12 13.1-11.12 22.2 0 15.3 12.5 27.71 27.93 27.71s27.93-12.41 27.93-27.71-12.37-27.85-27.93-27.85zm-14.31 2.895v3.859l6.254 6.203v-3.998zm13.34 0-6.252 6.064v3.998l6.252-6.203zm-13.34 5.1v3.861l6.254 6.064v-3.859zm13.34 0-6.252 6.066v3.859l6.252-6.064zm-13.34 5.102v3.859l6.254 6.066v-3.861zm13.34 0-6.252 6.064v3.861l6.252-6.066zm5.836 2.344c-1.806 0-3.195 1.516-3.195 3.17 0 0.6892 0.2768 1.378 0.5547 1.93-0.2779 0.1379-0.416 0.5524-0.416 0.8281 0 0.4135 0.1381 0.6884 0.416 0.8262-0.4169 0.5514-0.5547 1.24-0.5547 1.93 0 1.792 1.528 3.172 3.195 3.172 1.806 0 3.334-1.518 3.334-3.172 0-0.6893-0.1379-1.241-0.5547-1.654h11.25v0.4141h-1.111v0.9648h1.111v0.9648h-1.111v1.793h1.111v-0.8281h1.668v0.8281h1.111v-1.793h-1.111v-0.9648h1.111v-0.9648h-1.111v-0.6895h2.223c0.4169 0 0.834-0.4127 0.834-0.8262v-0.4141c0-0.4136-0.4171-0.6895-0.834-0.6895h-15.14c0.2779-0.5514 0.5547-1.103 0.5547-1.654 0-1.792-1.528-3.17-3.334-3.17zm0 1.102c0.9727 0 1.666 0.6893 1.666 1.654 0 0.6893-0.832 2.344-0.832 2.344v0.8281c0.139 0.2757 0.832 1.93 0.832 2.619 0 0.965-0.6933 1.654-1.666 1.654-0.9726 0-1.668-0.6893-1.668-1.654 0-0.2757 0.1383-0.691 0.2773-0.9668l0.418-0.8262c-0.2779-0.2757-0.418-0.69-0.418-1.104 0-0.4136 0.1401-0.8259 0.418-1.102l-0.418-0.8281c-0.139-0.2757-0.2773-0.5512-0.2773-0.9648 0-0.965 0.6954-1.654 1.668-1.654zm-19.18 1.518v4.135l6.254 6.066v-4.137zm13.34 0-6.252 6.064v4.137l6.252-6.066zm-19.04 0.1367v3.998c0 3.86 1.668 6.342 2.641 7.307 0.5558 0.5514 6.391 6.204 6.391 6.342 1.806 1.792 2.085 2.344 2.502 3.309v-4.412c0-3.998-2.084-5.514-3.057-6.479-2.362-2.481-3.892-3.998-5.281-5.377-2.501-2.481-3.195-4.688-3.195-4.688zm0.06 10.62v3.447c0 3.86 1.807 6.342 2.641 7.307 0.5558 0.5514 6.391 6.203 6.391 6.203 1.806 1.792 2.085 2.619 2.502 3.584v-4.688c0.139-3.998-1.945-5.514-2.918-6.479-2.501-2.344-4.03-3.998-5.42-5.238-2.501-2.481-3.195-4.137-3.195-4.137zm13.2 1.793v20.26c0.4169 0.1379 0.6945 0.2762 1.111 0.4141v-19.85h3.475c0.9726 0 1.527 0.1391 1.943 0.5527s0.5566 0.9647 0.5566 1.93v10.34c0 0.965-0.1398 1.656-0.5566 1.932-0.5558 0.5515-1.666 0.5508-2.5 0.5508h-0.5566v4.963c0.4168 0.1378 0.6964 0.1367 1.113 0.1367v-3.996c1.667 0 2.778-0.5514 3.334-1.654v5.928h1.111v-17.92c0-0.965 0.1398-1.655 0.5566-2.068 0.4169-0.4136 0.9726-0.5508 1.945-0.5508 0.9726 0 2.362-0.1385 3.057 0.5508 0.4168 0.4135 0.5547 1.103 0.5547 2.068v5.238h-2.5v-5.652h-1.111v18.2c0.4168 0 0.6945-0.1387 1.111-0.1387v-11.3h2.361v10.75c0.5558-0.1379 0.9735-0.2762 1.529-0.4141v-9.787c0-1.103 0.2771-1.93 1.389-2.344l-1.25-6.754h2.5l0.418 7.443h0.2773l0.416-7.443h2.641l-1.389 6.754c1.25 0.4136 1.389 1.103 1.389 2.344v6.342c0.6947-0.5514 1.389-1.104 2.084-1.793v-13.79h7.365c0-0.2757 0.1387-0.689 0.1387-0.9648h-17.09l0.2793 1.24c-0.5558-0.965-1.528-1.516-3.057-1.516h-1.111c-1.806 0-2.919 0.6887-3.336 2.205-0.4169-1.516-1.527-2.205-3.473-2.205zm23.86 1.516v7.168l-1.25-1.102zm-20.43 1.518v11.03h1.113v-11.03zm24.6 0.1367v0.9648h0.5547c1.112 0 2.362 1.53e-4 3.057 0.6895 0.1389-0.5514 0.2791-1.103 0.418-1.654zm0 3.033v5.514c0.4168-0.5514 0.8331-1.242 1.25-1.793v-3.721zm-8.895 3.859v8.961c0.4168-0.1378 0.6945-0.4148 1.111-0.5527v-8.408z"/>
</svg>
