<svg width="92" height="105" viewBox="0 0 92 105" fill="none" xmlns="http://www.w3.org/2000/svg">
<g opacity="0.5">
<path fill-rule="evenodd" clip-rule="evenodd" d="M31.8112 59.5076L42.1097 49.3982V42.5054L31.8112 52.6148V59.5076Z" fill="#808080"/>
<path fill-rule="evenodd" clip-rule="evenodd" d="M31.8112 34.0044L42.1097 23.6653V17.232L31.8112 27.3414V34.0044Z" fill="#808080"/>
<path fill-rule="evenodd" clip-rule="evenodd" d="M31.8112 42.2759L42.1097 32.1665V25.7332L31.8112 35.8426V42.2759Z" fill="#808080"/>
<path fill-rule="evenodd" clip-rule="evenodd" d="M28.8359 17.4617L27.4628 16.0831V0H26.0896V14.4748L24.7165 13.0963V0H23.1145V11.7177L21.7414 10.3392V0H20.1394V15.3939L30.4379 25.5033V0H28.8359V17.4617Z" fill="#808080"/>
<path fill-rule="evenodd" clip-rule="evenodd" d="M31.8112 50.777L42.1097 40.6676V34.2344L31.8112 44.3438V50.777Z" fill="#808080"/>
<path fill-rule="evenodd" clip-rule="evenodd" d="M20.1394 49.3982L30.4379 59.5076V52.6148L20.1394 42.5054V49.3982Z" fill="#808080"/>
<path fill-rule="evenodd" clip-rule="evenodd" d="M40.5077 10.3392L39.1345 11.7177V0H37.5325V13.0963L36.3883 14.4748V0H34.7863V16.0831L33.4131 17.4617V0H31.8112V25.5033L42.1097 15.3939V0H40.5077V10.3392Z" fill="#808080"/>
<path fill-rule="evenodd" clip-rule="evenodd" d="M20.1394 23.6653L30.4379 34.0044V27.3414L20.1394 17.232V23.6653Z" fill="#808080"/>
<path fill-rule="evenodd" clip-rule="evenodd" d="M20.1394 32.1665L30.4379 42.2759V35.8426L20.1394 25.7332V32.1665Z" fill="#808080"/>
<path fill-rule="evenodd" clip-rule="evenodd" d="M20.1394 40.6676L30.4379 50.777V44.3438L20.1394 34.2344V40.6676Z" fill="#808080"/>
<path fill-rule="evenodd" clip-rule="evenodd" d="M81.244 46.1815H56.2987C56.7564 45.2625 57.2141 44.3434 57.2141 43.4244C57.2141 40.4375 54.6967 38.1399 51.7216 38.1399C48.7465 38.1399 46.4579 40.6673 46.4579 43.4244C46.4579 44.5732 46.9156 45.722 47.3733 46.641C46.9156 46.8708 46.6868 47.5601 46.6868 48.0196C46.6868 48.7089 46.9156 49.1684 47.3733 49.3981C46.6868 50.3172 46.4579 51.466 46.4579 52.6148C46.4579 55.6016 48.9753 57.8992 51.7216 57.8992C54.6967 57.8992 57.2141 55.3719 57.2141 52.6148C57.2141 51.466 56.9853 50.5469 56.2987 49.8577H74.836V50.5469H73.0052V52.1553H74.836V53.7636H73.0052V56.7504H74.836V55.3719H77.5823V56.7504H79.4131V53.7636H77.5823V52.1553H79.4131V50.5469H77.5823V49.3981H81.244C81.9305 49.3981 82.6171 48.7089 82.6171 48.0196V47.3303C82.6171 46.641 81.9305 46.1815 81.244 46.1815ZM54.4678 52.385C54.4678 53.9933 53.3236 55.1421 51.7216 55.1421C50.1196 55.1421 48.9753 53.9933 48.9753 52.385C48.9753 51.9255 49.2042 51.2362 49.433 50.7767L50.1196 49.3981C49.6619 48.9386 49.433 48.2493 49.433 47.5601C49.433 46.8708 49.6619 46.1815 50.1196 45.722L49.433 44.3434C49.2042 43.8839 48.9753 43.4244 48.9753 42.7351C48.9753 41.1268 50.1196 39.978 51.7216 39.978C53.3236 39.978 54.4678 41.1268 54.4678 42.7351C54.4678 43.8839 53.0947 46.641 53.0947 46.641V48.0196C53.3236 48.4791 54.4678 51.2362 54.4678 52.385Z" fill="#808080"/>
<path fill-rule="evenodd" clip-rule="evenodd" d="M10.7551 42.7353V49.3983C10.7551 55.8315 13.5014 59.9672 15.1034 61.5755C16.0188 62.4946 25.6308 71.9147 25.6308 72.1444C28.6059 75.1313 29.0636 76.0503 29.7502 77.6587V70.3064C29.7502 63.6434 26.3173 61.116 24.7153 59.5077C20.8248 55.372 18.3074 52.8447 16.0188 50.5471C11.8994 46.4114 10.7551 42.7353 10.7551 42.7353Z" fill="#808080"/>
<path fill-rule="evenodd" clip-rule="evenodd" d="M24.9442 76.0505C20.8248 72.1446 18.3074 69.3875 16.0188 67.3197C11.8994 63.184 10.7551 60.4269 10.7551 60.4269V66.1709C10.7551 72.6041 13.7303 76.7398 15.1034 78.3481C16.0188 79.2672 25.6307 88.6873 25.6307 88.6873C28.6059 91.6742 29.0636 93.0527 29.7502 94.661V86.8492C29.979 80.1862 26.5462 77.6589 24.9442 76.0505Z" fill="#808080"/>
<path fill-rule="evenodd" clip-rule="evenodd" d="M46 12.4071C45.3134 12.4071 44.6269 12.4071 43.7114 12.4071V15.6237C44.398 15.6237 45.0846 15.6237 46 15.6237C69.801 15.6237 89.0249 34.9235 89.0249 58.8184C89.0249 82.7134 69.801 102.013 46 102.013C22.199 102.013 2.97512 82.7134 2.97512 58.8184C3.20398 45.4924 9.15423 33.7747 18.3085 25.7331V21.8272C7.32338 30.0985 0 43.6543 0 58.8184C0 84.3217 20.597 105 46 105C71.403 105 92 84.3217 92 58.8184C92 33.3151 71.6318 12.4071 46 12.4071Z" fill="#808080"/>
<path fill-rule="evenodd" clip-rule="evenodd" d="M78.7269 82.9431C79.4134 82.0241 80.1 80.8753 80.7866 79.9562V73.7527H78.7269V82.9431Z" fill="#808080"/>
<path fill-rule="evenodd" clip-rule="evenodd" d="M84.6771 71.4552C84.906 70.5362 85.1348 69.6172 85.3637 68.6981H78.7269V70.3065H79.6423C81.4731 70.3065 83.5328 70.3065 84.6771 71.4552Z" fill="#808080"/>
<path d="M40.0499 68.4682H38.219V86.849H40.0499V68.4682Z" fill="#808080"/>
<path fill-rule="evenodd" clip-rule="evenodd" d="M34.0993 64.7921H40.0496C41.6516 64.7921 42.567 65.0218 43.2535 65.7111C43.9401 66.4004 44.169 67.3194 44.169 68.9277V86.1597C44.169 87.768 43.9401 88.9168 43.2535 89.3763C42.3381 90.2954 40.5073 90.2954 39.1341 90.2954C38.9053 90.2954 38.4476 90.2954 38.2187 90.2954V98.5667C38.9053 98.7964 39.363 98.7964 40.0496 98.7964V92.1334C42.7958 92.1334 44.6267 91.2144 45.5421 89.3763V99.256C45.771 99.256 45.9998 99.256 46.2287 99.256C46.6864 99.256 46.9152 99.256 47.3729 99.256V69.3873C47.3729 67.7789 47.6018 66.6301 48.2884 65.9409C48.9749 65.2516 49.8904 65.0218 51.4923 65.0218C53.0943 65.0218 55.3829 64.7921 56.5272 65.9409C57.2137 66.6301 57.4426 67.7789 57.4426 69.3873V78.1181H53.3232V68.698H51.4923V99.0262C52.1789 99.0262 52.6366 98.7964 53.3232 98.7964V79.9562H57.2137V97.8774C58.1292 97.6477 58.8157 97.4179 59.7311 97.1881V80.8752C59.7311 79.0372 60.1889 77.6586 62.0197 76.9693L59.96 65.7111H64.0794L64.766 78.1181H65.2237L65.9102 65.7111H70.2585L67.97 76.9693C70.0297 77.6586 70.2585 78.8074 70.2585 80.8752V91.4442C71.4028 90.5251 72.5471 89.6061 73.6913 88.4573V65.4814H85.8207C85.8207 65.0218 86.0496 64.3326 86.0496 63.873H57.9003L58.358 65.9409C57.4426 64.3326 55.8406 63.4135 53.3232 63.4135H51.4923C48.5172 63.4135 46.6864 64.5623 45.9998 67.0897C45.3132 64.5623 43.4824 63.4135 40.2784 63.4135H32.4973V97.1881C33.1839 97.4179 33.6416 97.6477 34.3282 97.8774V64.7921H34.0993ZM71.8605 77.8884L69.8008 76.0503L71.8605 65.9409V77.8884Z" fill="#808080"/>
<path fill-rule="evenodd" clip-rule="evenodd" d="M64.0794 95.1202C64.7659 94.8904 65.2236 94.4309 65.9102 94.2012V80.1859H64.0794V95.1202Z" fill="#808080"/>
</g>
</svg>
