<svg width="248.8" height="70" version="1.1" viewBox="0 0 248.8 70" xmlns="http://www.w3.org/2000/svg" fill="#238441">
	<path d="m12.23 0v9.236l6.254 6.066v-15.3h-0.9727v10.48l-0.834-0.8262v-9.65h-0.834v8.686l-0.834-0.8281v-7.857h-0.9727v7.031l-0.834-0.8281v-6.203zm7.088 0v15.3l6.252-6.066v-9.236h-0.9727v6.203l-0.834 0.8281v-7.031h-0.9727v7.857l-0.6953 0.8281v-8.686h-0.9727v9.65l-0.832 0.8262v-10.48zm7.225 7.445v1.93h1.389c14.45 0 26.12 11.58 26.12 25.92 0 14.34-11.67 25.92-26.12 25.92s-26.12-11.58-26.12-25.92c0.139-7.996 3.751-15.03 9.309-19.85v-2.344c-6.669 4.963-11.12 13.1-11.12 22.2 0 15.3 12.5 27.71 27.93 27.71s27.93-12.41 27.93-27.71c0-15.3-12.37-27.85-27.93-27.85zm-14.31 2.895v3.859l6.254 6.203v-3.998zm13.34 0-6.252 6.064v3.998l6.252-6.203zm-13.34 5.1v3.861l6.254 6.064v-3.859zm13.34 0-6.252 6.066v3.859l6.252-6.064zm-13.34 5.102v3.859l6.254 6.066v-3.861zm13.34 0-6.252 6.064v3.861l6.252-6.066zm5.836 2.344c-1.806 0-3.195 1.516-3.195 3.17 0 0.6892 0.2768 1.378 0.5547 1.93-0.2779 0.1379-0.416 0.5524-0.416 0.8281 0 0.4135 0.1381 0.6884 0.416 0.8262-0.4169 0.5514-0.5547 1.24-0.5547 1.93 0 1.792 1.528 3.172 3.195 3.172 1.806 0 3.334-1.518 3.334-3.172 0-0.6893-0.1379-1.241-0.5547-1.654h11.25v0.4141h-1.111v0.9648h1.111v0.9648h-1.111v1.793h1.111v-0.8281h1.668v0.8281h1.111v-1.793h-1.111v-0.9648h1.111v-0.9648h-1.111v-0.6895h2.223c0.4169 0 0.834-0.4127 0.834-0.8262v-0.4141c0-0.4136-0.4171-0.6895-0.834-0.6895h-15.14c0.2779-0.5514 0.5547-1.103 0.5547-1.654 0-1.792-1.528-3.17-3.334-3.17zm0 1.102c0.9727 0 1.666 0.6893 1.666 1.654 0 0.6893-0.832 2.344-0.832 2.344v0.8281c0.139 0.2757 0.832 1.93 0.832 2.619 0 0.965-0.6933 1.654-1.666 1.654-0.9726 0-1.668-0.6893-1.668-1.654 0-0.2757 0.1383-0.691 0.2773-0.9668l0.418-0.8262c-0.2779-0.2757-0.418-0.69-0.418-1.104 0-0.4136 0.1401-0.8259 0.418-1.102l-0.418-0.8281c-0.139-0.2757-0.2773-0.5512-0.2773-0.9648 0-0.965 0.6954-1.654 1.668-1.654zm-19.18 1.518v4.135l6.254 6.066v-4.137zm13.34 0-6.252 6.064v4.137l6.252-6.066zm-19.04 0.1367v3.998c0 3.86 1.668 6.342 2.641 7.307 0.5558 0.5514 6.391 6.204 6.391 6.342 1.806 1.792 2.085 2.344 2.502 3.309v-4.412c0-3.998-2.084-5.514-3.057-6.479-2.362-2.481-3.892-3.998-5.281-5.377-2.501-2.481-3.195-4.688-3.195-4.688zm93.9 0.02734c-6.316 0-11.21 4.41-11.21 10.87s4.893 10.87 11.21 10.87c4.642 0 7.295-2.552 8.811-5.166l-3.852-1.859c-0.884 1.732-2.78 3.057-4.959 3.057-3.821 0-6.6-2.929-6.6-6.898s2.779-6.898 6.6-6.898c2.179 0 4.075 1.354 4.959 3.055l3.852-1.891c-1.485-2.614-4.169-5.133-8.811-5.133zm-29.09 0.3457v21.01h4.484v-7.465h5.367c4.547 0 7.074-3.119 7.074-6.773 0-3.686-2.495-6.771-7.074-6.771zm38.04 0 7.168 10.24-7.643 10.77h5.336l5.307-7.686 5.271 7.686h5.369l-7.641-10.8 7.168-10.21h-5.4l-4.768 7.182-4.832-7.182zm21.98 0v21.01h9.947c4.515 0 6.979-3.055 6.979-6.678s-2.495-6.678-6.979-6.678h-5.463v-3.717h10.89v-3.938zm33.67 0.2676c-2.339 0-4.152 1.634-4.152 4.025 0 2.392 1.813 4.023 4.152 4.023 1.719 0 2.703-0.9437 3.264-1.912l-1.428-0.6895c-0.327 0.6417-1.029 1.133-1.836 1.133-1.415 0-2.443-1.085-2.443-2.555s1.028-2.557 2.443-2.557c0.807 0 1.509 0.5028 1.836 1.133l1.428-0.7012c-0.55-0.9683-1.545-1.9-3.264-1.9zm38.39 0c-2.351 0-4.07 1.68-4.07 4.025s1.719 4.023 4.07 4.023c2.362 0 4.082-1.678 4.082-4.023s-1.72-4.025-4.082-4.025zm-34.27 0.127v1.459h2.281v6.324h1.672v-6.324h2.27v-1.459zm7.639 0v7.783h1.658v-2.766h1.99c1.684 0 2.619-1.154 2.619-2.508 0-1.365-0.9231-2.51-2.619-2.51zm8.967 0-3.018 7.783h1.895l0.4922-1.318h3.344l0.4805 1.318h1.895l-3.006-7.783zm5.527 0 2.654 3.793-2.83 3.99h1.977l1.965-2.848 1.953 2.848h1.988l-2.83-4.002 2.654-3.781h-2l-1.766 2.66-1.789-2.66zm17.73 0v7.783h4.234c1.485 0 2.27-0.935 2.27-2.102 0-0.98-0.668-1.784-1.498-1.912 0.736-0.1516 1.346-0.8052 1.346-1.785 0-1.038-0.7611-1.984-2.246-1.984zm10.29 0-3.016 7.783h1.893l0.4922-1.318h3.344l0.4805 1.318h1.895l-3.006-7.783zm6.16 0v7.783h1.66v-3.268h3.684v3.268h1.672v-7.783h-1.672v3.057h-3.684v-3.057zm8.906 0v7.783h1.602l3.719-5.215v5.215h1.66v-7.783h-1.707l-3.613 5.029v-5.029zm8.871 0v7.783h5.52v-1.459h-3.859v-1.762h3.777v-1.459h-3.777v-1.645h3.859v-1.459zm-39.83 1.342c1.438 0 2.375 1.098 2.375 2.557 0 1.447-0.937 2.555-2.375 2.555-1.439 0-2.363-1.108-2.363-2.555 0-1.458 0.9243-2.557 2.363-2.557zm7.26 0.08203h2.08c0.562 0 0.9141 0.3616 0.9141 0.8516s-0.3521 0.8398-0.9141 0.8398h-2.08zm-32.23 0.03516h1.768c0.655 0 1.146 0.3975 1.146 1.051 0 0.6417-0.4915 1.049-1.146 1.049h-1.768zm8.35 0.1992 1.217 3.348h-2.432zm33.55 0 1.217 3.348h-2.432zm-144.5 1.885h4.768c1.768 0 3.096 1.07 3.096 2.834 0 1.732-1.327 2.836-3.096 2.836h-4.768zm134.9 0.9961h2.139c0.655 0 1.006 0.4202 1.006 0.9102 0 0.56-0.3739 0.8984-1.006 0.8984h-2.139zm-60.95 3.252v3.402h7.58v-3.402zm-143.2 2.057v3.447c0 3.86 1.807 6.342 2.641 7.307 0.5558 0.5514 6.391 6.203 6.391 6.203 1.806 1.792 2.085 2.619 2.502 3.584v-4.688c0.139-3.998-1.945-5.514-2.918-6.479-2.501-2.344-4.03-3.998-5.42-5.238-2.501-2.481-3.195-4.137-3.195-4.137zm129.3 1.35h4.863c1.736 0 3 1.039 3 2.74 0 1.67-1.264 2.74-3 2.74h-4.863zm-116.1 0.4434v20.26c0.4169 0.1379 0.6945 0.2762 1.111 0.4141v-19.85h3.475c0.9726 0 1.527 0.1391 1.943 0.5527s0.5566 0.9647 0.5566 1.93v10.34c0 0.965-0.1398 1.656-0.5566 1.932-0.5558 0.5515-1.666 0.5508-2.5 0.5508h-0.5566v4.963c0.4168 0.1378 0.6964 0.1367 1.113 0.1367v-3.996c1.667 0 2.778-0.5514 3.334-1.654v5.928h1.111v-17.92c0-0.965 0.1398-1.655 0.5566-2.068 0.4169-0.4136 0.9726-0.5508 1.945-0.5508 0.9726 0 2.362-0.1385 3.057 0.5508 0.4168 0.4135 0.5547 1.103 0.5547 2.068v5.238h-2.5v-5.652h-1.111v18.2c0.4168 0 0.6945-0.1387 1.111-0.1387v-11.3h2.361v10.75c0.5558-0.1379 0.9735-0.2762 1.529-0.4141v-9.787c0-1.103 0.2771-1.93 1.389-2.344l-1.25-6.754h2.5l0.418 7.443h0.2773l0.416-7.443h2.641l-1.389 6.754c1.25 0.4136 1.389 1.103 1.389 2.344v6.342c0.6947-0.5514 1.389-1.104 2.084-1.793v-13.79h7.365c0-0.2757 0.1387-0.689 0.1387-0.9648h-17.09l0.2793 1.24c-0.5558-0.965-1.528-1.516-3.057-1.516h-1.111c-1.806 0-2.919 0.6887-3.336 2.205-0.4169-1.516-1.527-2.205-3.473-2.205zm184.9 1.076c-1.369 0-2.48 0.5247-3.111 1.236l0.8301 1.039c0.55-0.525 1.357-0.8047 2.117-0.8047 0.889 0 1.592 0.3036 1.592 0.9219 0 0.5717-0.6678 0.8281-1.592 0.8281h-1.578v1.459h1.578c1.17 0 1.719 0.2801 1.719 0.8984 0 0.5834-0.596 0.9902-1.625 0.9902-0.761 0-1.743-0.3267-2.281-0.8867l-0.8633 1.109c0.573 0.7 1.776 1.248 3.215 1.248 1.859 0 3.205-0.9454 3.205-2.287 0-1.167-1.03-1.786-1.812-1.867 0.853-0.1517 1.695-0.7934 1.695-1.773 0-1.295-1.264-2.111-3.088-2.111zm-43.95 0.1172 3.1 3.652-3.299 4.129h2.035l2.363-3.115 0.3281 0.3984v2.717h1.672v-2.717l0.3281-0.3984 2.361 3.115h2.035l-3.297-4.129 3.098-3.652h-2.057l-2.469 3.127v-3.127h-1.672v3.127l-2.48-3.127zm22.22 0v7.781h1.602l3.721-5.215v5.215h1.66v-7.781h-1.707l-3.615 5.029v-5.029zm36.71 0v7.781h1.66v-3.266h3.686v3.266h1.672v-7.781h-1.672v3.057h-3.686v-3.057zm19.08 0v7.781h1.604l3.719-5.215v5.215h1.66v-7.781h-1.707l-3.613 5.029v-5.029zm-195.1 0.3223v7.168l-1.25-1.102zm-20.43 1.518v11.03h1.113v-11.03zm24.6 0.1367v0.9648h0.5547c1.112 0 2.362 1.53e-4 3.057 0.6895 0.1389-0.5514 0.2791-1.103 0.418-1.654zm0 3.033v5.514c0.4168-0.5514 0.8331-1.242 1.25-1.793v-3.721zm-8.895 3.859v8.961c0.4168-0.1378 0.6945-0.4148 1.111-0.5527v-8.408z"/>
</svg>
